if (_typeface_js && _typeface_js.loadFace) _typeface_js.loadFace({"glyphs":{"¦":{"x_min":300,"x_max":393.0625,"ha":694,"o":"m 300 905 l 300 409 l 393 409 l 393 905 l 300 905 m 393 -211 l 393 270 l 300 270 l 300 -211 l 393 -211 "},"Ő":{"x_min":40.28125,"x_max":654.171875,"ha":694,"o":"m 569 1125 l 387 952 l 431 894 l 634 1034 l 569 1125 m 323 1125 l 140 952 l 184 894 l 387 1034 l 323 1125 m 654 430 b 601 711 654 511 648 618 b 351 873 544 822 445 873 b 40 433 222 873 40 773 b 352 -13 40 93 219 -13 b 602 154 445 -13 545 38 b 654 430 648 247 654 354 m 347 783 b 523 645 408 783 483 747 b 556 418 552 573 556 490 b 518 198 556 361 554 272 b 352 80 477 113 411 80 b 136 445 255 80 136 170 b 347 783 136 704 256 783 "},"Ž":{"x_min":69.4375,"x_max":641.671875,"ha":694,"o":"m 550 1048 l 511 1094 l 356 1000 l 212 1098 l 166 1045 l 338 909 l 368 909 l 550 1048 m 86 865 l 86 777 l 505 777 l 69 66 l 69 -1 l 641 -1 l 641 93 b 600 84 625 95 619 84 l 191 84 l 619 795 l 620 865 l 86 865 "},"Á":{"x_min":19.4375,"x_max":670.828125,"ha":694,"o":"m 427 1098 l 215 973 l 247 916 l 481 1001 l 427 1098 m 19 -1 l 115 -1 l 200 252 l 473 252 l 569 0 l 670 0 l 336 880 l 325 880 l 19 -1 m 452 327 l 218 327 l 330 656 l 452 327 "},"Î":{"x_min":112.5,"x_max":559.71875,"ha":694,"o":"m 138 961 l 179 913 l 333 1008 l 477 909 l 523 962 l 351 1098 l 322 1098 l 138 961 m 122 865 l 122 783 l 281 783 l 281 79 l 112 79 l 112 -1 l 559 -1 l 559 77 l 379 77 l 379 783 l 550 783 l 550 865 l 122 865 "},"e":{"x_min":66.671875,"x_max":616.234375,"ha":694,"o":"m 358 648 b 66 309 206 648 66 540 b 370 -15 66 97 198 -15 b 598 83 462 -15 544 18 l 543 137 b 379 65 502 90 441 65 b 163 302 294 65 170 112 l 613 302 b 609 423 618 345 616 387 b 358 648 580 594 462 648 m 166 379 b 351 572 187 529 283 572 b 515 379 454 572 527 481 l 166 379 "},"»":{"x_min":93.0625,"x_max":619.4375,"ha":694,"o":"m 619 350 l 408 555 l 354 498 l 522 333 l 344 138 l 400 84 l 619 318 l 619 350 m 366 350 l 156 555 l 102 498 l 270 333 l 93 138 l 148 84 l 366 318 l 366 350 "},"ò":{"x_min":55.5625,"x_max":638.890625,"ha":694,"o":"m 337 970 l 250 911 l 390 725 l 459 766 l 337 970 m 638 313 b 355 647 638 533 500 647 b 55 311 194 647 55 508 b 352 -18 55 118 193 -18 b 638 313 502 -18 638 102 m 348 562 b 537 309 440 562 537 483 b 354 69 537 150 445 69 b 161 320 252 69 161 163 b 348 562 161 476 251 562 "},"ţ":{"x_min":95.828125,"x_max":616.671875,"ha":694,"o":"m 261 804 l 248 633 l 97 633 l 95 551 l 244 551 b 231 227 236 443 231 334 b 269 54 231 170 231 106 b 384 -11 294 19 334 -4 l 370 -119 l 411 -119 b 462 -129 427 -119 447 -119 b 477 -152 473 -134 477 -144 b 413 -186 477 -165 468 -186 b 276 -137 372 -186 319 -172 l 241 -194 b 405 -245 293 -231 352 -245 b 556 -143 508 -245 556 -193 b 515 -79 556 -116 541 -91 b 462 -68 498 -69 479 -68 l 438 -66 l 445 -11 b 616 58 509 -4 570 23 l 586 137 b 443 79 531 97 481 79 b 336 181 395 79 347 105 b 331 304 336 187 331 211 b 344 551 331 386 336 469 l 552 551 l 552 634 l 345 634 b 362 784 345 634 355 748 b 369 822 363 798 375 806 l 261 804 "},"^":{"x_min":129.171875,"x_max":559.71875,"ha":694,"o":"m 129 508 l 198 475 l 350 718 l 484 475 l 559 509 l 370 865 l 340 865 l 129 508 "},"«":{"x_min":93.0625,"x_max":619.4375,"ha":694,"o":"m 344 350 l 344 318 l 563 84 l 619 138 l 441 333 l 609 498 l 555 555 l 344 350 m 93 350 l 93 318 l 312 84 l 366 138 l 190 333 l 358 498 l 304 555 l 93 350 "},"í":{"x_min":138.890625,"x_max":550,"ha":694,"o":"m 393 970 l 270 766 l 340 725 l 480 911 l 393 970 m 147 634 l 147 552 l 300 552 l 300 79 l 138 79 l 138 0 l 550 0 l 550 79 l 401 79 l 401 634 l 147 634 "},"ˆ":{"x_min":184.71875,"x_max":523.609375,"ha":694,"o":"m 184 755 l 237 708 l 350 848 l 458 706 l 523 754 l 369 951 l 340 951 l 184 755 "},"ȷ":{"x_min":66.671875,"x_max":511.109375,"ha":694,"o":"m 173 634 l 173 551 l 411 551 l 411 25 b 394 -76 411 -9 409 -43 b 266 -156 370 -127 320 -156 b 143 -93 190 -156 148 -101 b 130 -68 137 -83 140 -75 l 66 -154 b 259 -243 112 -211 181 -243 b 481 -116 351 -243 438 -200 b 511 43 509 -62 511 -11 l 511 634 l 173 634 "},"µ":{"x_min":33.328125,"x_max":684.71875,"ha":694,"o":"m 33 -231 l 119 -231 b 120 83 120 -127 120 -22 b 277 -16 148 22 211 -16 b 448 93 350 -16 416 26 b 562 -15 456 33 504 -15 b 684 61 613 -15 658 20 l 647 131 b 570 65 647 131 618 65 b 527 91 554 65 537 73 b 515 159 515 113 515 138 l 515 633 l 427 633 l 427 265 b 409 150 427 222 425 186 b 284 59 384 94 336 59 b 172 136 241 59 197 86 b 151 256 152 175 151 215 l 151 633 l 61 633 l 61 279 b 33 -231 61 104 33 -70 "},"č":{"x_min":77.78125,"x_max":633.328125,"ha":694,"o":"m 633 529 b 395 647 583 602 498 647 b 77 316 209 647 77 506 b 390 -16 77 125 209 -16 b 623 84 477 -16 563 19 l 566 151 b 398 75 523 102 461 75 b 180 326 275 75 180 177 b 390 561 180 470 273 561 b 554 477 498 561 550 486 b 562 445 559 468 551 454 l 633 529 m 523 913 l 470 961 l 358 820 l 250 962 l 184 915 l 338 718 l 368 718 l 523 913 "},"’":{"x_min":227.78125,"x_max":423.609375,"ha":694,"o":"m 423 769 b 327 884 423 840 376 884 b 247 805 281 884 247 847 b 286 744 247 768 273 752 b 318 694 298 736 318 723 b 298 637 318 672 305 648 b 227 550 284 615 261 580 l 276 508 b 423 769 373 606 423 697 "},"-":{"x_min":97.21875,"x_max":597.21875,"ha":694,"o":"m 97 481 l 97 390 l 597 390 l 597 481 l 97 481 "},"Q":{"x_min":40.28125,"x_max":654.171875,"ha":694,"o":"m 347 786 b 525 647 408 786 483 750 b 559 416 555 573 559 488 b 352 76 559 129 426 76 b 134 447 251 76 134 173 b 347 786 134 701 252 786 m 654 427 b 601 709 654 509 648 616 b 351 873 545 822 445 873 b 40 433 222 873 40 773 b 312 -11 40 125 187 8 b 395 -180 312 -90 333 -150 b 611 -201 450 -206 511 -201 l 612 -106 b 500 -115 569 -109 531 -115 b 398 -9 413 -115 400 -58 b 602 152 477 4 554 56 b 654 427 648 244 654 352 "},"M":{"x_min":55.5625,"x_max":637.5,"ha":694,"o":"m 55 865 l 55 -1 l 147 -1 l 147 647 l 322 304 l 358 304 l 545 652 l 545 -1 l 637 -1 l 637 865 l 565 865 l 347 441 l 131 865 l 55 865 "},"œ":{"x_min":8.328125,"x_max":686.109375,"ha":694,"o":"m 223 647 b 47 531 158 647 87 609 b 8 327 12 466 8 391 b 45 97 8 254 12 165 b 212 -16 87 12 158 -16 b 350 40 263 -16 312 5 b 508 -16 394 2 451 -16 b 686 58 575 -16 638 9 l 637 118 b 511 63 601 77 551 63 b 383 143 459 63 408 87 b 363 305 368 177 363 218 l 680 305 l 680 322 b 661 526 680 391 683 465 b 493 647 629 612 558 647 b 352 583 440 647 388 623 b 223 647 322 623 275 647 m 365 384 b 379 495 363 451 376 487 b 481 570 401 552 445 570 b 576 518 518 570 555 554 b 597 397 598 481 597 438 l 597 384 l 365 384 m 91 341 b 116 481 91 380 94 434 b 222 562 141 536 183 562 b 290 502 258 562 290 538 b 277 327 290 481 277 430 b 294 123 277 206 294 141 b 225 68 294 88 259 68 b 111 170 183 68 134 95 b 91 341 94 225 91 294 "},"ě":{"x_min":66.671875,"x_max":616.234375,"ha":694,"o":"m 523 913 l 470 961 l 358 820 l 250 962 l 184 915 l 338 718 l 368 718 l 523 913 m 358 648 b 66 309 206 648 66 540 b 370 -15 66 97 198 -15 b 598 83 462 -15 544 18 l 543 137 b 379 65 502 90 441 65 b 163 302 294 65 170 112 l 613 302 b 609 423 618 345 616 387 b 358 648 580 594 462 648 m 166 379 b 351 572 187 529 283 572 b 515 379 454 572 527 481 l 166 379 "},"{":{"x_min":72.21875,"x_max":566.671875,"ha":694,"o":"m 72 393 l 72 315 l 101 315 b 188 287 125 315 161 316 b 225 161 216 261 225 220 b 220 22 225 118 220 76 b 297 -179 220 -27 225 -123 b 515 -220 358 -225 429 -220 l 565 -220 l 565 -143 l 513 -143 b 375 -119 456 -143 412 -145 b 318 22 325 -86 318 -25 b 322 138 318 59 322 95 b 205 355 322 284 258 337 b 304 448 248 373 283 406 b 326 559 322 486 326 527 b 322 658 326 594 322 625 b 377 787 322 686 325 754 b 518 804 415 811 456 804 l 566 804 l 566 883 l 523 883 b 294 827 450 883 361 888 b 225 641 233 772 225 694 b 229 543 225 608 229 576 b 193 425 229 508 225 459 b 100 393 162 393 125 393 l 72 393 "},"¼":{"x_min":8.328125,"x_max":662.5,"ha":694,"o":"m 104 -23 l 169 -59 l 605 884 l 540 922 l 104 -23 m 548 334 l 326 50 l 326 11 l 529 11 l 529 -97 l 591 -97 l 591 9 l 662 9 l 662 62 l 591 62 l 591 334 l 548 334 m 529 226 l 529 62 l 400 62 l 529 226 m 201 940 l 154 940 l 8 859 l 26 825 l 131 851 l 131 579 l 22 579 l 22 518 l 305 518 l 305 579 l 201 579 l 201 940 "},"#":{"x_min":34.71875,"x_max":659.71875,"ha":694,"o":"m 240 866 l 212 631 l 58 630 l 52 563 l 204 565 l 176 329 l 40 326 l 34 262 l 169 265 l 138 16 l 220 19 l 251 266 l 404 269 l 375 15 l 458 19 l 488 270 l 627 272 l 634 337 l 497 334 l 525 569 l 652 569 l 659 636 l 533 634 l 561 863 l 475 859 l 448 633 l 295 633 l 323 870 l 240 866 m 287 566 l 440 568 l 412 333 l 258 330 l 287 566 "},"Ê":{"x_min":80.5625,"x_max":611.109375,"ha":694,"o":"m 152 961 l 191 913 l 347 1008 l 490 909 l 536 962 l 365 1098 l 334 1098 l 152 961 m 80 865 l 80 0 l 608 0 l 608 86 l 173 86 l 173 406 l 534 406 l 534 495 l 173 495 l 173 779 l 611 779 l 611 865 l 80 865 "},")":{"x_min":100,"x_max":505.5625,"ha":694,"o":"m 106 837 b 406 343 290 738 406 550 b 100 -158 406 134 287 -59 l 126 -243 b 505 347 356 -133 505 97 b 133 923 505 594 359 819 l 106 837 "},"Å":{"x_min":19.4375,"x_max":670.828125,"ha":694,"o":"m 276 981 b 333 1045 276 1018 302 1045 b 391 981 365 1045 391 1018 b 333 918 391 945 365 918 b 276 981 302 918 276 945 m 452 327 l 218 327 l 330 656 l 452 327 m 344 859 b 459 980 409 865 459 918 b 331 1102 459 1047 402 1102 b 205 980 261 1102 205 1048 b 318 859 205 918 254 866 l 19 -1 l 115 -1 l 200 252 l 473 252 l 569 0 l 670 0 l 344 859 "},"¸":{"x_min":218.0625,"x_max":533.328125,"ha":694,"o":"m 362 0 l 347 -119 l 387 -119 b 438 -129 404 -119 423 -119 b 454 -152 450 -134 454 -144 b 390 -186 454 -165 444 -186 b 252 -137 348 -186 295 -172 l 218 -194 b 381 -245 269 -231 329 -245 b 533 -143 484 -245 533 -193 b 491 -79 533 -116 518 -91 b 437 -68 473 -69 455 -68 l 415 -66 l 422 0 l 362 0 "},"a":{"x_min":68.0625,"x_max":602.78125,"ha":694,"o":"m 125 559 l 173 495 b 356 566 226 550 297 566 b 487 505 431 566 469 534 b 506 395 508 470 506 429 l 506 373 l 487 373 b 212 344 393 373 293 373 b 68 163 112 308 68 233 b 280 -16 68 70 148 -16 b 508 69 358 -16 438 12 l 508 0 l 602 0 l 602 393 b 572 543 602 444 601 493 b 351 647 530 611 450 647 b 125 559 266 647 184 620 m 511 297 l 511 254 b 468 134 511 222 511 180 b 301 59 444 111 384 59 b 168 169 216 59 168 113 b 279 287 168 216 200 268 b 488 297 337 301 422 297 l 511 297 "},"Ę":{"x_min":80.5625,"x_max":611.109375,"ha":694,"o":"m 80 865 l 80 0 l 513 0 b 402 -159 441 -59 402 -115 b 512 -245 402 -206 440 -245 b 608 -212 547 -245 580 -236 l 608 -150 b 563 -173 600 -156 584 -166 b 530 -181 548 -179 538 -181 b 490 -141 505 -181 490 -163 b 512 -94 490 -120 502 -105 b 605 0 525 -80 559 -43 l 608 0 l 608 86 l 173 86 l 173 406 l 534 406 l 534 495 l 173 495 l 173 779 l 611 779 l 611 865 l 80 865 "},"=":{"x_min":61.109375,"x_max":631.9375,"ha":694,"o":"m 61 608 l 61 523 l 631 523 l 631 608 l 61 608 m 61 320 l 61 236 l 631 236 l 631 320 l 61 320 "},"˚":{"x_min":227.78125,"x_max":481.9375,"ha":694,"o":"m 481 838 b 355 961 481 906 426 961 b 227 840 284 961 227 906 b 355 716 227 772 284 716 b 481 838 426 716 481 772 m 298 840 b 356 904 298 876 325 904 b 413 840 387 904 413 876 b 356 776 413 804 387 776 b 298 840 325 776 298 805 "},"ú":{"x_min":86.109375,"x_max":611.109375,"ha":694,"o":"m 404 970 l 281 766 l 351 725 l 491 911 l 404 970 m 86 633 l 86 279 b 111 112 86 224 86 169 b 308 -16 147 29 225 -16 b 504 95 387 -16 462 26 l 502 48 b 505 0 502 31 502 15 l 611 0 b 602 56 604 18 602 38 l 602 633 l 502 633 l 502 284 b 477 159 502 236 498 198 b 330 65 448 105 391 65 b 209 143 281 65 234 93 b 187 279 187 187 187 237 l 187 633 l 86 633 "},"¯":{"x_min":170.828125,"x_max":523.609375,"ha":694,"o":"m 170 863 l 170 786 l 523 786 l 523 863 l 170 863 "},"Z":{"x_min":69.4375,"x_max":641.671875,"ha":694,"o":"m 86 865 l 86 777 l 505 777 l 69 66 l 69 -1 l 641 -1 l 641 93 b 600 84 625 95 619 84 l 191 84 l 619 795 l 620 865 l 86 865 "},"u":{"x_min":86.109375,"x_max":611.109375,"ha":694,"o":"m 86 633 l 86 279 b 111 112 86 224 86 169 b 308 -16 147 29 225 -16 b 504 95 387 -16 462 26 l 502 48 b 505 0 502 31 502 15 l 611 0 b 602 56 604 18 602 38 l 602 633 l 502 633 l 502 284 b 477 159 502 236 498 198 b 330 65 448 105 391 65 b 209 143 281 65 234 93 b 187 279 187 187 187 237 l 187 633 l 86 633 "},"k":{"x_min":91.671875,"x_max":663.890625,"ha":694,"o":"m 91 922 l 91 -1 l 191 -1 l 191 238 l 276 316 l 534 -6 b 654 -1 534 -6 588 -1 b 663 -1 658 -1 661 -1 l 352 377 l 620 629 l 584 629 b 509 637 559 629 534 630 l 191 341 l 191 886 b 197 902 191 891 193 895 b 205 922 201 906 206 912 l 91 922 "},"Ù":{"x_min":69.4375,"x_max":629.171875,"ha":694,"o":"m 251 1098 l 195 1001 l 430 916 l 462 973 l 251 1098 m 69 865 l 69 297 l 69 297 b 102 118 69 236 70 177 b 348 -16 150 29 247 -16 b 594 119 448 -16 545 27 b 629 302 627 179 629 238 l 629 865 l 537 865 l 537 300 b 515 168 537 255 536 212 b 350 66 483 101 418 66 b 186 169 281 66 216 102 b 165 297 165 211 165 254 l 165 820 b 170 838 165 826 165 831 b 179 858 173 843 179 850 b 177 865 179 859 179 862 l 69 865 "},"Ů":{"x_min":69.4375,"x_max":629.171875,"ha":694,"o":"m 477 980 b 350 1102 477 1047 420 1102 b 223 980 279 1102 223 1048 b 350 858 223 913 279 858 b 477 980 420 858 477 913 m 294 981 b 351 1045 294 1018 320 1045 b 409 981 383 1045 409 1018 b 351 918 409 945 383 918 b 294 981 319 918 294 945 m 69 865 l 69 297 l 69 297 b 102 118 69 236 70 177 b 348 -16 150 29 247 -16 b 594 119 448 -16 545 27 b 629 302 627 179 629 238 l 629 865 l 537 865 l 537 300 b 515 168 537 255 536 212 b 350 66 483 101 418 66 b 186 169 281 66 216 102 b 165 297 165 211 165 254 l 165 820 b 170 838 165 826 165 831 b 179 858 173 843 179 850 b 177 865 179 859 179 862 l 69 865 "},"¢":{"x_min":66.671875,"x_max":626.390625,"ha":694,"o":"m 394 865 l 375 709 b 66 377 188 701 66 563 b 293 56 66 218 156 94 l 273 -100 l 354 -109 l 375 44 b 384 44 377 44 381 44 b 619 144 475 44 559 79 l 568 211 b 387 133 520 162 454 133 l 386 133 l 450 619 b 554 552 501 604 536 575 b 558 530 561 544 558 538 b 565 516 558 529 558 522 l 626 595 b 461 704 591 648 537 688 l 476 818 b 483 837 477 827 479 830 b 488 856 484 840 488 847 l 394 865 m 305 148 b 165 390 220 183 165 269 b 365 629 165 536 251 622 l 305 148 "},"Ş":{"x_min":70.828125,"x_max":631.9375,"ha":694,"o":"m 602 761 b 363 869 544 831 458 869 b 100 647 206 869 100 766 b 191 479 100 597 119 531 b 462 348 272 419 397 390 b 534 229 519 313 534 268 b 345 72 534 154 470 72 b 138 168 251 72 177 119 b 134 181 134 173 134 176 b 129 195 134 184 134 193 l 70 95 b 316 -13 133 29 220 -8 l 302 -119 l 343 -119 b 394 -129 359 -119 379 -119 b 409 -152 405 -134 409 -144 b 345 -186 409 -165 400 -186 b 208 -137 304 -186 251 -172 l 173 -194 b 337 -245 225 -231 284 -245 b 488 -143 440 -245 488 -193 b 447 -79 488 -116 473 -91 b 393 -68 429 -69 411 -68 l 370 -66 l 376 -13 b 631 234 562 0 631 131 b 563 391 631 280 618 340 b 287 533 488 462 366 487 b 200 662 215 576 200 627 b 355 788 200 729 256 788 b 531 704 436 788 498 752 b 534 690 536 698 534 695 b 541 679 534 681 538 679 l 602 761 "},"é":{"x_min":66.671875,"x_max":616.234375,"ha":694,"o":"m 404 970 l 281 766 l 351 725 l 491 911 l 404 970 m 358 648 b 66 309 206 648 66 540 b 370 -15 66 97 198 -15 b 598 83 462 -15 544 18 l 543 137 b 379 65 502 90 441 65 b 163 302 294 65 170 112 l 613 302 b 609 423 618 345 616 387 b 358 648 580 594 462 648 m 166 379 b 351 572 187 529 283 572 b 515 379 454 572 527 481 l 166 379 "},"↓":{"x_min":80.5625,"x_max":611.109375,"ha":694,"o":"m 611 280 l 551 330 l 390 129 l 390 888 l 297 888 l 297 130 l 150 330 l 80 283 l 322 -47 l 351 -47 l 611 280 "},"B":{"x_min":66.671875,"x_max":633.328125,"ha":694,"o":"m 66 865 l 66 0 l 311 0 b 488 25 369 0 429 0 b 633 238 581 65 633 150 b 472 462 633 340 568 430 b 600 652 548 494 600 570 b 473 840 600 730 555 805 b 312 865 419 863 365 865 l 66 865 m 162 781 l 298 781 b 413 766 336 781 375 781 b 501 644 470 743 501 694 b 418 523 501 594 472 547 b 297 506 377 506 336 506 l 162 506 l 162 781 m 162 425 l 304 425 b 433 402 347 425 390 423 b 531 248 497 373 531 311 b 438 101 531 186 498 129 b 327 84 401 84 365 84 l 162 84 l 162 425 "},"…":{"x_min":8.328125,"x_max":652.78125,"ha":694,"o":"m 652 63 b 570 143 652 106 616 143 b 488 63 525 143 488 106 b 570 -16 488 19 525 -16 b 652 63 616 -16 652 19 m 173 63 b 90 143 173 106 136 143 b 8 63 45 143 8 106 b 90 -16 8 19 45 -16 b 173 63 136 -16 173 19 m 412 63 b 330 143 412 106 376 143 b 248 63 284 143 248 106 b 330 -16 248 19 284 -16 b 412 63 376 -16 412 19 "},"H":{"x_min":75,"x_max":622.21875,"ha":694,"o":"m 75 865 l 75 0 l 175 0 l 175 411 l 513 411 l 513 -1 l 611 -1 l 611 833 b 622 858 611 848 622 848 b 620 865 622 861 620 862 l 515 865 l 515 494 l 175 494 l 175 830 b 184 858 175 845 184 847 b 183 865 184 861 183 862 l 75 865 "},"î":{"x_min":138.890625,"x_max":550,"ha":694,"o":"m 156 755 l 209 708 l 322 848 l 429 706 l 494 754 l 340 951 l 311 951 l 156 755 m 147 634 l 147 552 l 300 552 l 300 79 l 138 79 l 138 0 l 550 0 l 550 79 l 401 79 l 401 634 l 147 634 "},"−":{"x_min":61.109375,"x_max":631.9375,"ha":694,"o":"m 61 476 l 61 391 l 631 391 l 631 476 l 61 476 "},"¥":{"x_min":50,"x_max":647.21875,"ha":694,"o":"m 50 865 l 309 409 l 309 380 l 115 380 l 115 301 l 309 301 l 309 213 l 115 213 l 115 136 l 309 136 l 309 0 l 404 0 l 404 136 l 591 136 l 591 213 l 404 213 l 404 301 l 591 301 l 591 380 l 404 380 l 404 409 l 647 865 l 543 865 l 358 504 l 156 865 l 50 865 "},"␣":{"x_min":66.671875,"x_max":627.78125,"ha":694,"o":"m 66 95 l 66 -91 l 627 -91 l 627 95 l 559 95 l 559 -29 l 130 -29 l 130 95 l 66 95 "},"U":{"x_min":69.4375,"x_max":629.171875,"ha":694,"o":"m 69 865 l 69 297 l 69 297 b 102 118 69 236 70 177 b 348 -16 150 29 247 -16 b 594 119 448 -16 545 27 b 629 302 627 179 629 238 l 629 865 l 537 865 l 537 300 b 515 168 537 255 536 212 b 350 66 483 101 418 66 b 186 169 281 66 216 102 b 165 297 165 211 165 254 l 165 820 b 170 838 165 826 165 831 b 179 858 173 843 179 850 b 177 865 179 859 179 862 l 69 865 "},"Ñ":{"x_min":69.4375,"x_max":629.546875,"ha":694,"o":"m 187 948 b 277 1034 220 1002 241 1034 b 458 929 338 1034 377 929 b 594 1027 509 929 547 968 l 543 1083 b 462 1009 513 1041 497 1009 b 393 1054 437 1009 416 1030 b 281 1112 375 1072 338 1112 b 125 993 227 1112 176 1073 l 187 948 m 69 0 l 162 0 l 162 680 l 543 -1 l 620 -1 l 620 829 b 626 848 620 838 622 841 b 629 865 627 851 630 858 l 526 865 l 526 223 l 163 865 l 69 865 l 69 0 "},"F":{"x_min":106.9375,"x_max":605.5625,"ha":694,"o":"m 106 865 l 106 0 l 205 0 l 205 425 l 529 425 l 529 508 l 205 508 l 205 780 l 605 780 l 605 865 l 106 865 "},"ă":{"x_min":68.0625,"x_max":602.78125,"ha":694,"o":"m 201 897 l 151 833 b 358 726 206 766 281 726 b 562 838 441 726 515 775 l 523 895 b 358 798 476 834 416 798 b 201 897 288 798 233 847 m 125 559 l 173 495 b 356 566 226 550 297 566 b 487 505 431 566 469 534 b 506 395 508 470 506 429 l 506 373 l 487 373 b 212 344 393 373 293 373 b 68 163 112 308 68 233 b 280 -16 68 70 148 -16 b 508 69 358 -16 438 12 l 508 0 l 602 0 l 602 393 b 572 543 602 444 601 493 b 351 647 530 611 450 647 b 125 559 266 647 184 620 m 511 297 l 511 254 b 468 134 511 222 511 180 b 301 59 444 111 384 59 b 168 169 216 59 168 113 b 279 287 168 216 200 268 b 488 297 337 301 422 297 l 511 297 "},"*":{"x_min":56.9375,"x_max":636.109375,"ha":694,"o":"m 295 719 l 316 473 l 93 579 l 56 488 l 297 416 l 115 208 l 191 147 l 347 377 l 497 148 l 572 208 l 397 418 l 636 488 l 598 575 l 377 473 l 400 681 b 408 719 401 700 405 702 l 295 719 "},"†":{"x_min":68.0625,"x_max":623.609375,"ha":694,"o":"m 300 905 l 300 633 l 68 633 l 68 550 l 300 550 l 300 -211 l 393 -211 l 393 550 l 623 550 l 623 633 l 393 633 l 393 905 l 300 905 "},"°":{"x_min":166.671875,"x_max":541.671875,"ha":694,"o":"m 541 700 b 354 886 541 802 458 886 b 166 700 251 886 166 802 b 354 513 166 597 251 513 b 541 700 458 513 541 597 m 355 812 b 459 701 412 812 459 763 b 355 590 459 638 412 590 b 252 701 300 590 252 638 b 355 812 252 763 300 812 "},"å":{"x_min":68.0625,"x_max":602.78125,"ha":694,"o":"m 481 838 b 355 961 481 906 426 961 b 227 840 284 961 227 906 b 355 716 227 772 284 716 b 481 838 426 716 481 772 m 298 840 b 356 904 298 876 325 904 b 413 840 387 904 413 876 b 356 776 413 804 387 776 b 298 840 325 776 298 805 m 125 559 l 173 495 b 356 566 226 550 297 566 b 487 505 431 566 469 534 b 506 395 508 470 506 429 l 506 373 l 487 373 b 212 344 393 373 293 373 b 68 163 112 308 68 233 b 280 -16 68 70 148 -16 b 508 69 358 -16 438 12 l 508 0 l 602 0 l 602 393 b 572 543 602 444 601 493 b 351 647 530 611 450 647 b 125 559 266 647 184 620 m 511 297 l 511 254 b 468 134 511 222 511 180 b 301 59 444 111 384 59 b 168 169 216 59 168 113 b 279 287 168 216 200 268 b 488 297 337 301 422 297 l 511 297 "},"0":{"x_min":69.4375,"x_max":623.609375,"ha":694,"o":"m 348 870 b 69 425 211 870 69 701 b 350 -16 69 144 212 -16 b 623 418 475 -16 623 119 b 348 870 623 712 481 870 m 483 672 l 179 277 b 159 441 166 326 159 380 b 347 786 159 663 261 786 b 483 672 394 786 445 748 m 515 580 b 533 405 527 531 533 473 b 352 72 533 163 429 72 b 211 190 301 72 248 113 l 515 580 "},"ō":{"x_min":55.5625,"x_max":638.890625,"ha":694,"o":"m 170 863 l 170 786 l 523 786 l 523 863 l 170 863 m 638 315 b 355 648 638 534 500 648 b 55 312 194 648 55 509 b 352 -16 55 119 193 -16 b 638 315 502 -16 638 104 m 348 563 b 537 311 440 563 537 484 b 354 70 537 151 445 70 b 161 322 252 70 161 165 b 348 563 161 477 251 563 "},"”":{"x_min":84.71875,"x_max":568.0625,"ha":694,"o":"m 280 769 b 183 884 280 840 233 884 b 104 805 137 884 104 847 b 141 744 104 768 130 752 b 175 694 154 736 175 723 b 154 637 175 672 161 648 b 84 550 140 615 116 580 l 131 508 b 280 769 229 606 280 697 m 568 769 b 470 884 568 840 520 884 b 391 805 425 884 391 847 b 430 744 391 768 418 752 b 462 694 441 736 462 723 b 441 637 462 672 448 648 b 372 550 427 615 405 580 l 419 508 b 568 769 516 606 568 697 "},"ö":{"x_min":55.5625,"x_max":638.890625,"ha":694,"o":"m 295 852 b 225 922 295 890 263 922 b 155 852 186 922 155 890 b 225 781 155 813 186 781 b 295 852 263 781 295 813 m 541 852 b 472 922 541 890 511 922 b 402 852 434 922 402 890 b 472 781 402 813 434 781 b 541 852 511 781 541 813 m 638 313 b 355 647 638 533 500 647 b 55 311 194 647 55 508 b 352 -18 55 118 193 -18 b 638 313 502 -18 638 102 m 348 562 b 537 309 440 562 537 483 b 354 69 537 150 445 69 b 161 320 252 69 161 163 b 348 562 161 476 251 562 "},"Õ":{"x_min":40.28125,"x_max":654.171875,"ha":694,"o":"m 187 948 b 277 1034 220 1002 241 1034 b 458 929 338 1034 377 929 b 594 1027 509 929 547 968 l 543 1083 b 462 1009 513 1041 497 1009 b 393 1054 437 1009 416 1030 b 281 1112 375 1072 338 1112 b 125 993 227 1112 176 1073 l 187 948 m 654 430 b 601 711 654 511 648 618 b 351 873 544 822 445 873 b 40 433 222 873 40 773 b 352 -13 40 93 219 -13 b 602 154 445 -13 545 38 b 654 430 648 247 654 354 m 347 783 b 523 645 408 783 483 747 b 556 418 552 573 556 490 b 518 198 556 361 554 272 b 352 80 477 113 411 80 b 136 445 255 80 136 170 b 347 783 136 704 256 783 "},"ć":{"x_min":77.78125,"x_max":633.328125,"ha":694,"o":"m 404 970 l 281 766 l 351 725 l 491 911 l 404 970 m 633 529 b 395 647 583 602 498 647 b 77 316 209 647 77 506 b 390 -16 77 125 209 -16 b 623 84 477 -16 563 19 l 566 151 b 398 75 523 102 461 75 b 180 326 275 75 180 177 b 390 561 180 470 273 561 b 554 477 498 561 550 486 b 562 445 559 468 551 454 l 633 529 "},"þ":{"x_min":83.328125,"x_max":641.671875,"ha":694,"o":"m 83 922 l 83 -231 l 184 -231 l 184 83 b 375 -18 227 20 298 -18 b 641 323 505 -18 641 91 b 384 647 641 547 509 647 b 183 536 302 647 226 605 l 183 876 b 193 922 183 898 194 902 l 83 922 m 347 562 b 537 302 402 562 537 533 b 347 70 537 102 406 70 b 201 158 287 70 226 101 b 183 345 183 201 183 254 b 200 470 183 398 186 437 b 347 562 225 527 283 562 "},"]":{"x_min":113.890625,"x_max":512.5,"ha":694,"o":"m 512 929 l 115 929 l 115 847 l 423 847 l 423 -44 l 113 -44 l 113 -123 l 512 -123 l 512 929 "},"8":{"x_min":83.328125,"x_max":612.5,"ha":694,"o":"m 358 875 b 123 662 225 875 123 779 b 255 459 123 577 177 500 b 83 216 152 411 83 316 b 345 -15 83 87 197 -15 b 612 222 497 -15 612 90 b 445 462 612 325 543 416 b 583 670 529 505 583 587 b 358 875 583 784 484 875 m 329 419 b 513 223 440 384 513 308 b 350 72 513 140 443 72 b 183 229 255 72 183 143 b 329 419 183 311 247 386 m 350 794 b 488 663 427 794 488 736 b 369 497 488 597 437 533 b 216 670 369 497 216 555 b 350 794 216 738 275 794 "},"R":{"x_min":77.78125,"x_max":644.4375,"ha":694,"o":"m 77 865 l 77 0 l 175 0 l 175 381 l 343 381 l 534 0 l 644 0 l 444 384 b 620 627 548 413 620 512 b 497 836 620 713 577 795 b 331 865 443 863 388 865 l 77 865 m 175 773 l 331 773 b 438 755 368 773 402 772 b 520 616 493 727 520 672 b 444 484 520 561 494 509 b 343 466 411 468 377 466 l 175 466 l 175 773 "},"ť":{"x_min":61.109375,"x_max":670.828125,"ha":694,"o":"m 670 887 b 593 979 670 944 633 979 b 529 915 556 979 529 949 b 559 866 529 886 550 873 b 586 827 569 859 586 849 b 569 780 586 808 575 790 b 513 711 558 762 540 736 l 552 677 b 670 887 629 756 670 829 m 225 804 l 212 633 l 61 633 l 61 551 l 209 551 b 195 227 200 443 195 334 b 233 54 195 170 195 106 b 377 -12 263 12 312 -12 b 580 58 452 -12 526 19 l 550 137 b 406 79 495 97 445 79 b 300 181 359 79 311 105 b 295 304 300 187 295 211 b 308 551 295 386 300 469 l 516 551 l 516 634 l 309 634 b 326 784 309 634 319 748 b 333 822 329 798 338 806 l 225 804 "},"Ľ":{"x_min":91.671875,"x_max":609.71875,"ha":694,"o":"m 586 779 b 509 870 586 836 548 870 b 445 808 472 870 445 841 b 476 758 445 777 466 765 b 502 719 486 752 502 741 b 486 673 502 701 491 681 b 430 604 475 655 456 627 l 468 570 b 586 779 545 648 586 720 m 91 865 l 91 -1 l 609 -1 l 609 81 l 191 81 l 191 818 b 200 843 191 830 195 834 b 204 865 201 847 205 854 l 91 865 "},"Ż":{"x_min":69.4375,"x_max":641.671875,"ha":694,"o":"m 352 1086 b 280 1015 312 1086 280 1054 b 352 944 280 976 312 944 b 425 1015 393 944 425 976 b 352 1086 425 1054 393 1086 m 86 865 l 86 777 l 505 777 l 69 66 l 69 -1 l 641 -1 l 641 93 b 600 84 625 95 619 84 l 191 84 l 619 795 l 620 865 l 86 865 "},"o":{"x_min":55.5625,"x_max":638.890625,"ha":694,"o":"m 638 313 b 355 647 638 533 500 647 b 55 311 194 647 55 508 b 352 -18 55 118 193 -18 b 638 313 502 -18 638 102 m 348 562 b 537 309 440 562 537 483 b 354 69 537 150 445 69 b 161 320 252 69 161 163 b 348 562 161 476 251 562 "},"5":{"x_min":87.5,"x_max":618.0625,"ha":694,"o":"m 147 865 l 116 425 l 179 400 b 341 481 220 452 281 481 b 518 275 431 481 518 412 b 343 69 518 141 436 69 b 184 148 250 69 188 140 b 173 181 179 159 186 173 l 87 116 b 344 -16 145 31 241 -16 b 618 272 494 -16 618 84 b 355 561 618 458 501 561 b 215 527 308 561 259 550 l 227 777 l 586 777 l 586 865 l 147 865 "},"õ":{"x_min":55.5625,"x_max":638.890625,"ha":694,"o":"m 187 773 b 277 859 220 827 241 859 b 458 754 338 859 377 754 b 594 852 509 754 547 793 l 543 908 b 462 834 513 866 497 834 b 393 879 437 834 416 855 b 281 937 375 897 338 937 b 125 818 227 937 176 898 l 187 773 m 638 313 b 355 647 638 533 500 647 b 55 311 194 647 55 508 b 352 -18 55 118 193 -18 b 638 313 502 -18 638 102 m 348 562 b 537 309 440 562 537 483 b 354 69 537 150 445 69 b 161 320 252 69 161 163 b 348 562 161 476 251 562 "},",":{"x_min":227.78125,"x_max":423.609375,"ha":694,"o":"m 423 26 b 327 141 423 97 376 141 b 247 62 281 141 247 104 b 286 1 247 25 273 9 b 318 -48 298 -6 318 -19 b 298 -105 318 -70 305 -94 b 227 -193 284 -127 261 -162 l 276 -234 b 423 26 373 -136 423 -45 "},"d":{"x_min":61.109375,"x_max":621.046875,"ha":694,"o":"m 515 541 b 329 650 484 606 416 650 b 61 322 208 650 61 563 b 313 -15 61 87 191 -15 b 509 101 394 -15 469 30 l 509 45 b 515 0 509 30 511 15 l 615 0 b 609 58 609 18 609 38 l 608 883 b 613 902 608 891 608 894 b 620 923 616 906 622 913 l 515 923 l 515 541 m 333 568 b 495 444 388 568 470 538 b 506 309 504 415 506 380 b 493 193 506 261 504 226 b 337 73 469 118 402 73 b 158 337 265 73 158 129 b 333 568 158 519 259 568 "},"\"":{"x_min":154.171875,"x_max":550,"ha":694,"o":"m 550 838 b 487 925 550 901 515 925 b 427 848 461 925 427 902 b 437 761 427 818 437 790 b 423 683 437 733 430 706 l 393 590 l 470 570 l 504 663 b 550 838 538 758 550 802 m 311 838 b 248 925 311 901 275 925 b 188 848 220 925 188 902 b 197 761 188 818 197 790 b 183 683 197 733 191 706 l 154 590 l 230 570 l 263 663 b 311 838 298 758 311 802 "},"˙":{"x_min":280.5625,"x_max":425,"ha":694,"o":"m 352 909 b 280 838 312 909 280 877 b 352 768 280 800 312 768 b 425 838 393 768 425 800 b 352 909 425 877 393 909 "},"ê":{"x_min":66.671875,"x_max":616.234375,"ha":694,"o":"m 184 755 l 237 708 l 350 848 l 458 706 l 523 754 l 369 951 l 340 951 l 184 755 m 358 648 b 66 309 206 648 66 540 b 370 -15 66 97 198 -15 b 598 83 462 -15 544 18 l 543 137 b 379 65 502 90 441 65 b 163 302 294 65 170 112 l 613 302 b 609 423 618 345 616 387 b 358 648 580 594 462 648 m 166 379 b 351 572 187 529 283 572 b 515 379 454 572 527 481 l 166 379 "},"„":{"x_min":84.71875,"x_max":568.0625,"ha":694,"o":"m 568 26 b 470 141 568 97 520 141 b 391 62 425 141 391 104 b 430 1 391 25 418 9 b 462 -48 441 -6 462 -19 b 441 -105 462 -70 448 -94 b 372 -193 427 -127 405 -162 l 419 -234 b 568 26 516 -136 568 -45 m 280 26 b 183 141 280 97 233 141 b 104 62 137 141 104 104 b 141 1 104 25 130 9 b 175 -48 154 -6 175 -19 b 154 -105 175 -70 161 -94 b 84 -193 140 -127 116 -162 l 131 -234 b 280 26 229 -136 280 -45 "},"ľ":{"x_min":84.71875,"x_max":658.328125,"ha":694,"o":"m 658 838 b 580 931 658 895 620 931 b 516 868 544 931 516 901 b 548 818 516 837 538 824 b 573 779 558 812 573 801 b 558 733 573 761 563 741 b 501 663 547 715 527 687 l 540 630 b 658 838 618 708 658 781 m 93 922 l 93 841 l 272 841 l 272 79 l 84 79 l 84 0 l 559 0 l 559 79 l 373 79 l 373 922 l 93 922 "},"Â":{"x_min":19.4375,"x_max":670.828125,"ha":694,"o":"m 140 961 l 180 913 l 334 1008 l 479 909 l 523 962 l 352 1098 l 323 1098 l 140 961 m 19 -1 l 115 -1 l 200 252 l 473 252 l 569 0 l 670 0 l 336 880 l 325 880 l 19 -1 m 452 327 l 218 327 l 330 656 l 452 327 "},"Ţ":{"x_min":43.0625,"x_max":641.671875,"ha":694,"o":"m 43 865 l 43 777 l 287 777 l 287 -1 l 309 -1 l 294 -119 l 334 -119 b 386 -129 351 -119 370 -119 b 401 -152 397 -134 401 -144 b 337 -186 401 -165 391 -186 b 200 -137 295 -186 243 -172 l 165 -194 b 329 -245 216 -231 276 -245 b 480 -143 431 -245 480 -193 b 438 -79 480 -116 465 -91 b 384 -68 420 -69 402 -68 l 362 -66 l 369 -1 l 386 -1 l 386 777 l 641 777 l 641 865 l 43 865 "},"Í":{"x_min":112.5,"x_max":559.71875,"ha":694,"o":"m 451 1098 l 238 973 l 270 916 l 506 1001 l 451 1098 m 122 865 l 122 783 l 281 783 l 281 79 l 112 79 l 112 -1 l 559 -1 l 559 77 l 379 77 l 379 783 l 550 783 l 550 865 l 122 865 "},"´":{"x_min":281.9375,"x_max":491.671875,"ha":694,"o":"m 404 970 l 281 766 l 351 725 l 491 911 l 404 970 "},"Ú":{"x_min":69.4375,"x_max":629.171875,"ha":694,"o":"m 451 1098 l 238 973 l 270 916 l 506 1001 l 451 1098 m 69 865 l 69 297 l 69 297 b 102 118 69 236 70 177 b 348 -16 150 29 247 -16 b 594 119 448 -16 545 27 b 629 302 627 179 629 238 l 629 865 l 537 865 l 537 300 b 515 168 537 255 536 212 b 350 66 483 101 418 66 b 186 169 281 66 216 102 b 165 297 165 211 165 254 l 165 820 b 170 838 165 826 165 831 b 179 858 173 843 179 850 b 177 865 179 859 179 862 l 69 865 "},"Ý":{"x_min":38.890625,"x_max":655.5625,"ha":694,"o":"m 451 1098 l 238 973 l 270 916 l 506 1001 l 451 1098 m 38 865 l 305 340 l 305 0 l 411 0 l 411 340 l 655 865 l 552 865 l 361 445 l 148 865 l 38 865 "},"ą":{"x_min":68.0625,"x_max":604.171875,"ha":694,"o":"m 511 297 l 511 254 b 468 134 511 222 511 180 b 301 59 444 111 384 59 b 168 169 216 59 168 113 b 279 287 168 216 200 268 b 488 297 337 301 422 297 l 511 297 m 125 559 l 173 495 b 356 566 226 550 297 566 b 487 505 431 566 469 534 b 506 395 508 470 506 429 l 506 373 l 487 373 b 212 344 393 373 293 373 b 68 163 112 308 68 233 b 280 -16 68 70 148 -16 b 508 69 358 -16 438 12 l 508 0 l 509 0 b 400 -159 437 -59 400 -115 b 508 -245 400 -206 436 -245 b 604 -212 543 -245 577 -236 l 604 -150 b 559 -173 595 -156 581 -166 b 526 -181 545 -179 534 -181 b 486 -141 501 -181 486 -163 b 509 -94 486 -120 500 -105 b 602 0 520 -80 555 -43 l 602 0 l 602 393 b 572 543 602 444 601 493 b 351 647 530 611 450 647 b 125 559 266 647 184 620 "},"Ö":{"x_min":40.28125,"x_max":654.171875,"ha":694,"o":"m 288 1025 b 219 1094 288 1063 258 1094 b 148 1025 180 1094 148 1063 b 219 954 148 986 180 954 b 288 1025 258 954 288 986 m 536 1025 b 466 1094 536 1063 505 1094 b 397 1025 427 1094 397 1063 b 466 954 397 986 429 954 b 536 1025 505 954 536 986 m 654 430 b 601 711 654 511 648 618 b 351 873 544 822 445 873 b 40 433 222 873 40 773 b 352 -13 40 93 219 -13 b 602 154 445 -13 545 38 b 654 430 648 247 654 354 m 347 783 b 523 645 408 783 483 747 b 556 418 552 573 556 490 b 518 198 556 361 554 272 b 352 80 477 113 411 80 b 136 445 255 80 136 170 b 347 783 136 704 256 783 "},"z":{"x_min":69.4375,"x_max":623.609375,"ha":694,"o":"m 97 634 l 97 547 l 462 547 l 69 66 l 69 -1 l 623 -1 l 623 93 b 581 84 606 95 601 84 l 204 84 l 591 566 l 591 634 l 97 634 "},"™":{"x_min":23.609375,"x_max":669.453125,"ha":694,"o":"m 330 880 l 23 880 l 23 825 l 143 825 l 143 443 l 205 443 l 205 825 l 330 825 l 330 880 m 419 880 l 370 880 l 370 443 l 429 443 l 429 741 l 505 593 l 527 591 l 569 666 l 611 741 l 611 443 l 669 443 l 669 880 l 623 880 l 572 780 l 519 679 l 419 880 "},"Ř":{"x_min":77.78125,"x_max":644.4375,"ha":694,"o":"m 550 1048 l 511 1094 l 356 1000 l 212 1098 l 166 1045 l 338 909 l 368 909 l 550 1048 m 77 865 l 77 0 l 175 0 l 175 381 l 343 381 l 534 0 l 644 0 l 444 384 b 620 627 548 413 620 512 b 497 836 620 713 577 795 b 331 865 443 863 388 865 l 77 865 m 175 773 l 331 773 b 438 755 368 773 402 772 b 520 616 493 727 520 672 b 444 484 520 561 494 509 b 343 466 411 468 377 466 l 175 466 l 175 773 "},"ã":{"x_min":68.0625,"x_max":608.328125,"ha":694,"o":"m 200 773 b 291 859 233 827 254 859 b 470 754 352 859 390 754 b 608 852 522 754 559 793 l 556 908 b 476 834 526 866 509 834 b 406 879 450 834 429 855 b 295 937 388 897 351 937 b 138 818 241 937 190 898 l 200 773 m 125 559 l 173 495 b 356 566 226 550 297 566 b 487 505 431 566 469 534 b 506 395 508 470 506 429 l 506 373 l 487 373 b 212 344 393 373 293 373 b 68 163 112 308 68 233 b 280 -16 68 70 148 -16 b 508 69 358 -16 438 12 l 508 0 l 602 0 l 602 393 b 572 543 602 444 601 493 b 351 647 530 611 450 647 b 125 559 266 647 184 620 m 511 297 l 511 254 b 468 134 511 222 511 180 b 301 59 444 111 384 59 b 168 169 216 59 168 113 b 279 287 168 216 200 268 b 488 297 337 301 422 297 l 511 297 "},"Ň":{"x_min":69.4375,"x_max":629.546875,"ha":694,"o":"m 550 1048 l 511 1094 l 356 1000 l 212 1098 l 166 1045 l 338 909 l 368 909 l 550 1048 m 69 0 l 162 0 l 162 680 l 543 -1 l 620 -1 l 620 829 b 626 848 620 838 622 841 b 629 865 627 851 630 858 l 526 865 l 526 223 l 163 865 l 69 865 l 69 0 "},"æ":{"x_min":13.890625,"x_max":686.109375,"ha":694,"o":"m 43 570 l 91 509 b 195 569 116 547 156 569 b 297 494 240 569 280 540 b 305 422 305 470 305 448 l 305 386 l 275 384 b 140 358 241 383 191 381 b 13 170 52 319 13 241 b 195 -16 13 66 95 -16 b 352 79 262 -16 323 20 b 527 -16 390 19 456 -16 b 686 58 588 -16 647 11 l 637 115 b 534 65 612 83 575 65 b 405 151 480 65 429 97 b 391 243 393 180 391 209 l 391 306 l 680 319 l 680 372 b 643 566 680 434 680 505 b 504 647 608 623 554 647 b 358 561 445 647 388 615 b 202 647 327 613 270 647 b 43 570 141 647 81 620 m 305 304 l 305 251 b 297 133 305 202 309 166 b 205 69 281 90 243 69 b 102 176 150 69 102 116 b 169 281 102 216 123 258 b 276 302 204 300 240 301 l 305 304 m 391 386 l 391 411 b 418 518 391 444 393 480 b 502 569 437 548 468 569 b 587 508 537 569 570 547 b 600 422 598 480 600 451 l 600 394 l 391 386 "},"É":{"x_min":80.5625,"x_max":611.109375,"ha":694,"o":"m 451 1098 l 238 973 l 270 916 l 506 1001 l 451 1098 m 80 865 l 80 0 l 608 0 l 608 86 l 173 86 l 173 406 l 534 406 l 534 495 l 173 495 l 173 779 l 611 779 l 611 865 l 80 865 "},"~":{"x_min":56.9375,"x_max":659.71875,"ha":694,"o":"m 126 473 b 241 559 161 531 202 559 b 468 448 326 559 354 448 b 659 576 554 448 623 522 l 595 629 b 477 540 555 575 523 540 b 247 644 398 540 362 644 b 56 519 169 644 97 588 l 126 473 "},"³":{"x_min":155.5625,"x_max":562.5,"ha":694,"o":"m 356 884 b 173 798 287 884 219 854 l 223 747 b 352 812 256 788 305 812 b 456 730 415 812 456 770 b 340 658 456 698 431 658 b 313 659 331 658 322 658 l 313 590 b 354 593 326 591 340 593 b 476 515 461 593 476 541 b 354 426 476 466 422 426 b 238 470 288 426 247 463 b 219 509 226 483 231 497 l 155 437 b 352 348 205 380 276 348 b 562 508 463 348 562 418 b 461 627 562 566 519 616 b 538 736 506 641 538 684 b 356 884 538 815 461 884 "},"¡":{"x_min":250,"x_max":413.890625,"ha":694,"o":"m 250 844 b 331 762 250 800 286 762 b 413 844 377 762 413 800 b 331 926 413 890 377 926 b 250 844 286 926 250 890 m 329 -16 b 390 27 354 -16 377 -1 b 400 88 397 43 400 62 b 386 258 400 133 391 166 l 366 641 l 295 641 l 270 258 b 258 100 268 205 258 152 b 263 43 258 66 261 51 b 329 -16 275 1 304 -16 "},"[":{"x_min":181.9375,"x_max":579.171875,"ha":694,"o":"m 181 929 l 181 -123 l 579 -123 l 579 -44 l 270 -44 l 270 847 l 577 847 l 577 929 l 181 929 "},"%":{"x_min":38.890625,"x_max":669.453125,"ha":694,"o":"m 541 865 l 62 0 l 151 0 l 636 865 l 541 865 m 193 880 b 38 698 111 880 38 805 b 194 516 38 594 109 516 b 350 697 279 516 350 594 b 193 880 350 802 277 880 m 191 806 b 262 693 213 806 262 793 b 193 591 262 612 220 591 b 122 702 168 591 122 609 b 191 806 122 786 163 806 m 669 165 b 513 345 669 269 598 345 b 358 165 430 345 358 269 b 513 -15 358 61 429 -15 b 669 165 598 -15 669 61 m 513 273 b 586 162 543 273 586 251 b 515 55 586 79 544 55 b 441 165 481 55 441 83 b 513 273 441 250 484 273 "},"P":{"x_min":80.5625,"x_max":631.9375,"ha":694,"o":"m 80 865 l 80 0 l 181 0 l 181 381 l 351 381 l 351 381 b 509 409 405 381 456 383 b 631 620 590 450 631 533 b 508 834 631 708 590 793 b 344 865 454 863 400 865 l 80 865 m 181 773 l 344 773 b 451 755 380 773 415 772 b 533 616 504 727 533 672 b 455 484 533 561 505 509 b 355 466 422 468 388 466 l 180 466 l 181 773 "},"_":{"x_min":47.21875,"x_max":647.21875,"ha":694,"o":"m 47 -26 l 47 -112 l 647 -112 l 647 -26 l 47 -26 "},"Ŕ":{"x_min":77.78125,"x_max":644.4375,"ha":694,"o":"m 427 1098 l 215 973 l 247 916 l 481 1001 l 427 1098 m 77 865 l 77 0 l 175 0 l 175 381 l 343 381 l 534 0 l 644 0 l 444 384 b 620 627 548 413 620 512 b 497 836 620 713 577 795 b 331 865 443 863 388 865 l 77 865 m 175 773 l 331 773 b 438 755 368 773 402 772 b 520 616 493 727 520 672 b 444 484 520 561 494 509 b 343 466 411 468 377 466 l 175 466 l 175 773 "},"ñ":{"x_min":94.4375,"x_max":598.609375,"ha":694,"o":"m 180 773 b 270 859 213 827 234 859 b 451 754 331 859 369 754 b 587 852 501 754 540 793 l 536 908 b 455 834 505 866 490 834 b 386 879 429 834 408 855 b 275 937 368 897 330 937 b 118 818 220 937 169 898 l 180 773 m 94 0 l 195 0 l 195 365 b 227 473 195 406 201 438 b 379 562 251 505 312 562 b 465 522 411 562 443 548 b 500 381 500 480 500 426 l 500 0 l 598 0 l 598 384 l 598 384 b 576 537 598 433 598 486 b 406 648 544 608 479 648 b 195 522 320 648 243 593 l 195 633 l 94 633 l 94 0 "},"‚":{"x_min":227.78125,"x_max":423.609375,"ha":694,"o":"m 423 26 b 327 141 423 97 376 141 b 247 62 281 141 247 104 b 286 1 247 25 273 9 b 318 -48 298 -6 318 -19 b 298 -105 318 -70 305 -94 b 227 -193 284 -127 261 -162 l 276 -234 b 423 26 373 -136 423 -45 "},"ˋ":{"x_min":250,"x_max":459.71875,"ha":694,"o":"m 337 970 l 250 911 l 390 725 l 459 766 l 337 970 "},"Æ":{"x_min":5.5625,"x_max":672.21875,"ha":694,"o":"m 277 865 l 5 0 l 94 0 l 168 234 l 348 234 l 348 0 l 668 0 l 668 86 l 436 86 l 434 406 l 636 406 l 636 495 l 433 495 l 430 779 l 672 779 l 672 865 l 277 865 m 348 779 l 348 313 l 188 313 l 333 779 l 348 779 "},"ğ":{"x_min":52.78125,"x_max":658.328125,"ha":694,"o":"m 201 897 l 151 833 b 358 726 206 766 281 726 b 562 838 441 726 515 775 l 523 895 b 358 798 476 834 416 798 b 201 897 288 798 233 847 m 173 436 b 313 575 173 512 237 575 b 454 436 391 575 454 512 b 313 297 454 359 391 297 b 173 436 236 297 173 359 m 319 654 b 83 430 193 654 83 554 b 176 258 83 361 118 295 b 104 136 130 219 104 176 b 155 51 104 109 115 72 b 52 -88 87 8 52 -38 b 338 -240 52 -158 116 -240 b 631 -45 554 -240 631 -130 b 533 91 631 9 600 65 b 318 109 466 119 390 109 b 227 118 270 109 240 113 b 188 159 202 125 188 140 b 234 230 188 193 227 225 b 315 216 259 220 287 216 b 543 433 440 216 543 316 b 511 541 543 472 531 509 b 622 572 544 561 583 572 b 658 568 634 572 645 570 l 647 650 b 470 594 583 655 519 634 b 319 654 430 633 377 654 m 223 33 b 329 25 247 30 280 27 b 463 22 376 23 427 27 b 540 -51 522 12 540 -23 b 480 -136 540 -79 523 -112 b 337 -163 433 -161 380 -163 b 206 -143 308 -163 254 -162 b 144 -65 155 -122 144 -87 b 223 33 144 -19 187 13 "},"ª":{"x_min":104.171875,"x_max":590.28125,"ha":694,"o":"m 169 786 l 218 727 b 347 788 248 770 300 788 b 436 748 391 788 419 772 b 451 676 451 725 451 700 l 451 659 l 430 659 b 223 630 362 659 286 662 b 140 501 165 598 140 547 b 304 356 140 423 208 356 b 452 416 358 356 411 377 l 452 369 l 540 369 l 540 673 b 523 772 540 709 538 740 b 356 863 495 833 431 863 b 169 786 290 863 219 843 m 454 587 l 454 563 b 423 475 454 531 454 502 b 318 431 398 452 361 431 b 230 505 263 431 230 466 b 312 583 230 534 251 573 b 431 587 350 590 395 587 l 454 587 m 104 286 l 104 209 l 590 209 l 590 286 l 104 286 "},"Œ":{"x_min":12.5,"x_max":672.21875,"ha":694,"o":"m 350 826 b 236 876 320 858 279 876 b 58 737 180 876 105 844 b 12 433 22 650 12 550 b 43 166 12 269 38 183 b 236 -9 83 36 166 -9 b 348 43 280 -9 320 8 l 348 0 l 668 0 l 668 86 l 436 86 l 436 406 l 636 406 l 636 495 l 436 495 l 436 779 l 672 779 l 672 865 l 350 865 l 350 826 m 101 450 b 127 686 101 597 119 661 b 236 795 152 761 195 795 b 348 673 298 795 334 719 l 348 179 b 248 75 336 118 295 75 b 140 170 216 75 170 94 b 101 450 101 265 101 411 "},"Ą":{"x_min":19.4375,"x_max":673.609375,"ha":694,"o":"m 452 327 l 218 327 l 330 656 l 452 327 m 19 -1 l 115 -1 l 200 252 l 473 252 l 569 0 l 579 0 b 469 -159 506 -59 469 -115 b 577 -245 469 -206 505 -245 b 673 -212 612 -245 647 -236 l 673 -150 b 629 -173 665 -156 651 -166 b 595 -181 615 -179 604 -181 b 555 -141 570 -181 555 -163 b 579 -94 555 -120 569 -105 b 672 0 590 -80 625 -43 l 670 0 l 336 880 l 325 880 l 19 -1 "},"T":{"x_min":43.0625,"x_max":641.671875,"ha":694,"o":"m 43 865 l 43 777 l 287 777 l 287 -1 l 386 -1 l 386 777 l 641 777 l 641 865 l 43 865 "},"š":{"x_min":77.78125,"x_max":609.71875,"ha":694,"o":"m 523 913 l 470 961 l 358 820 l 250 962 l 184 915 l 338 718 l 368 718 l 523 913 m 600 550 b 362 648 541 613 456 648 b 119 472 215 648 119 566 b 273 308 119 361 238 320 b 444 250 327 288 397 272 b 506 169 497 225 506 191 b 344 69 506 109 434 69 b 145 156 236 69 166 134 b 141 172 141 162 141 166 b 136 184 141 173 143 181 l 77 86 b 345 -15 152 16 250 -15 b 609 183 519 -15 609 87 b 516 326 609 226 591 284 b 283 409 445 366 343 380 b 220 487 231 434 220 465 b 354 573 220 537 283 573 b 530 486 445 573 506 518 b 533 473 534 481 533 477 b 541 462 533 465 538 462 l 600 550 "},"Þ":{"x_min":80.5625,"x_max":631.9375,"ha":694,"o":"m 80 865 l 80 0 l 179 0 l 179 218 l 351 218 b 509 247 405 218 456 219 b 631 458 590 287 631 370 b 508 672 631 545 590 630 b 344 701 454 700 400 701 l 179 701 l 179 826 b 183 841 179 831 179 834 b 190 858 186 845 190 851 b 190 865 190 861 190 862 l 80 865 m 179 611 l 344 611 b 451 591 380 611 415 609 b 533 454 504 565 533 509 b 455 320 533 398 505 347 b 355 304 422 304 388 304 l 179 304 l 179 611 "},"j":{"x_min":66.671875,"x_max":533.328125,"ha":694,"o":"m 173 634 l 173 551 l 411 551 l 411 25 b 394 -76 411 -9 409 -43 b 266 -156 370 -127 320 -156 b 143 -93 190 -156 148 -101 b 130 -68 137 -83 140 -75 l 66 -154 b 259 -243 112 -211 181 -243 b 481 -116 351 -243 438 -200 b 511 43 509 -62 511 -11 l 511 634 l 173 634 m 462 909 b 390 838 422 909 390 877 b 462 768 390 800 422 768 b 533 838 501 768 533 800 b 462 909 533 877 501 909 "},"1":{"x_min":126.390625,"x_max":568.0625,"ha":694,"o":"m 412 865 l 348 865 l 126 750 l 148 695 l 320 744 l 320 75 l 159 75 l 159 -1 l 568 -1 l 568 75 l 412 75 l 412 865 "},"›":{"x_min":200,"x_max":475,"ha":694,"o":"m 475 350 l 263 555 l 209 498 l 377 333 l 200 138 l 255 84 l 475 318 l 475 350 "},"<":{"x_min":47.21875,"x_max":638.890625,"ha":694,"o":"m 636 688 l 154 443 l 638 169 l 638 65 l 47 411 l 47 477 l 636 786 l 636 688 "},"t":{"x_min":95.828125,"x_max":616.671875,"ha":694,"o":"m 261 804 l 248 633 l 97 633 l 95 551 l 244 551 b 231 227 236 443 231 334 b 269 54 231 170 231 106 b 413 -12 300 12 348 -12 b 616 58 488 -12 562 19 l 586 137 b 443 79 531 97 481 79 b 336 181 395 79 347 105 b 331 304 336 187 331 211 b 344 551 331 386 336 469 l 552 551 l 552 634 l 345 634 b 362 784 345 634 355 748 b 369 822 363 798 375 806 l 261 804 "},"¬":{"x_min":126.390625,"x_max":575,"ha":694,"o":"m 126 480 l 126 393 l 486 393 l 486 218 l 575 218 l 575 480 l 126 480 "},"ù":{"x_min":86.109375,"x_max":611.109375,"ha":694,"o":"m 337 970 l 250 911 l 390 725 l 459 766 l 337 970 m 86 633 l 86 279 b 111 112 86 224 86 169 b 308 -16 147 29 225 -16 b 504 95 387 -16 462 26 l 502 48 b 505 0 502 31 502 15 l 611 0 b 602 56 604 18 602 38 l 602 633 l 502 633 l 502 284 b 477 159 502 236 498 198 b 330 65 448 105 391 65 b 209 143 281 65 234 93 b 187 279 187 187 187 237 l 187 633 l 86 633 "},"ï":{"x_min":138.890625,"x_max":550,"ha":694,"o":"m 280 852 b 211 922 280 890 250 922 b 140 852 172 922 140 890 b 211 781 140 813 172 781 b 280 852 250 781 280 813 m 527 852 b 458 922 527 890 497 922 b 388 852 419 922 388 890 b 458 781 388 813 419 781 b 527 852 497 781 527 813 m 147 634 l 147 552 l 300 552 l 300 79 l 138 79 l 138 0 l 550 0 l 550 79 l 401 79 l 401 634 l 147 634 "},"Ò":{"x_min":40.28125,"x_max":654.171875,"ha":694,"o":"m 251 1098 l 195 1001 l 430 916 l 462 973 l 251 1098 m 654 430 b 601 711 654 511 648 618 b 351 873 544 822 445 873 b 40 433 222 873 40 773 b 352 -13 40 93 219 -13 b 602 154 445 -13 545 38 b 654 430 648 247 654 354 m 347 783 b 523 645 408 783 483 747 b 556 418 552 573 556 490 b 518 198 556 361 554 272 b 352 80 477 113 411 80 b 136 445 255 80 136 170 b 347 783 136 704 256 783 "},"Ď":{"x_min":73.609375,"x_max":638.890625,"ha":694,"o":"m 515 1048 l 475 1094 l 320 1000 l 176 1098 l 130 1045 l 302 909 l 331 909 l 515 1048 m 73 865 l 73 -1 l 259 -1 b 447 33 327 -1 386 1 b 638 433 570 97 638 244 b 477 818 638 600 588 745 b 276 865 415 859 352 865 l 73 865 m 165 781 l 270 781 b 433 734 325 781 379 779 b 540 420 513 668 540 544 b 416 113 540 255 486 161 b 254 75 362 77 308 75 l 165 75 l 165 781 "},"&":{"x_min":50,"x_max":666.671875,"ha":694,"o":"m 316 873 b 126 691 211 873 126 794 b 225 475 126 615 173 537 b 50 202 118 416 50 309 b 266 -15 50 79 141 -15 b 500 104 359 -15 445 36 l 576 -18 l 658 43 l 561 169 b 666 331 600 220 636 275 l 576 393 b 570 379 573 390 570 386 b 573 362 570 373 573 368 b 570 351 573 358 572 355 b 508 240 561 319 541 279 l 352 456 b 502 688 443 506 502 597 b 316 873 502 795 420 873 m 222 688 b 315 790 222 750 266 790 b 412 681 366 790 412 747 b 305 516 412 618 370 552 b 222 688 237 602 222 652 m 272 411 l 450 170 b 280 75 450 170 373 75 b 154 212 209 75 154 131 b 272 411 154 283 198 362 "},"˝":{"x_min":173.609375,"x_max":600,"ha":694,"o":"m 297 970 l 173 766 l 244 725 l 384 911 l 297 970 m 512 970 l 390 766 l 459 725 l 600 911 l 512 970 "},"I":{"x_min":112.5,"x_max":559.71875,"ha":694,"o":"m 122 865 l 122 783 l 281 783 l 281 79 l 112 79 l 112 -1 l 559 -1 l 559 77 l 379 77 l 379 783 l 550 783 l 550 865 l 122 865 "},"G":{"x_min":50,"x_max":637.5,"ha":694,"o":"m 384 873 b 50 422 269 873 50 801 b 383 -13 50 94 233 -13 b 637 76 463 -13 556 15 l 637 413 l 391 413 l 391 330 l 548 330 l 548 123 b 393 70 500 88 444 70 b 227 147 336 70 275 93 b 145 441 155 229 145 351 b 188 663 145 522 155 600 b 383 787 233 748 311 787 b 548 686 461 787 522 744 b 568 658 552 676 556 665 l 636 727 b 384 873 586 818 491 873 "},"`":{"x_min":193.0625,"x_max":426.296875,"ha":694,"o":"m 304 638 b 406 613 344 591 386 595 b 402 711 427 631 438 668 b 340 772 383 733 359 748 b 301 840 322 793 309 816 l 263 930 l 193 895 l 226 804 b 304 638 261 708 280 668 "},"·":{"x_min":248.609375,"x_max":412.5,"ha":694,"o":"m 412 458 b 330 538 412 502 376 538 b 248 458 284 538 248 502 b 330 379 248 415 284 379 b 412 458 376 379 412 415 "},"¿":{"x_min":93.0625,"x_max":606.9375,"ha":694,"o":"m 251 843 b 333 763 251 800 287 763 b 415 843 379 763 415 800 b 333 923 415 887 379 923 b 251 843 287 923 251 887 m 606 126 l 536 191 b 348 72 493 119 419 72 b 202 219 265 72 202 137 b 316 412 202 309 275 366 b 381 591 377 480 381 529 l 381 648 l 290 648 l 290 591 b 230 450 290 543 287 501 b 93 226 184 409 93 356 b 338 -19 93 97 181 -19 b 606 126 443 -19 547 33 "},"ý":{"x_min":30.5625,"x_max":643.0625,"ha":694,"o":"m 404 970 l 281 766 l 351 725 l 491 911 l 404 970 m 62 633 l 320 1 l 300 -44 b 256 -118 288 -70 276 -97 b 168 -159 230 -147 197 -159 b 93 -122 120 -159 97 -127 b 81 -98 88 -115 90 -105 l 30 -188 b 168 -241 66 -223 115 -241 b 326 -173 225 -241 284 -220 b 381 -72 354 -141 368 -108 l 579 451 b 643 634 602 511 623 572 l 538 634 b 490 465 527 576 509 520 l 369 125 l 183 593 b 181 604 181 597 181 600 b 187 633 181 613 188 620 l 62 633 "},"º":{"x_min":104.171875,"x_max":590.28125,"ha":694,"o":"m 348 863 b 131 600 233 863 131 758 b 340 355 131 448 230 355 b 551 616 441 355 551 436 b 348 863 551 783 448 863 m 216 605 b 341 786 216 726 279 786 b 468 605 406 786 468 725 b 343 436 468 486 401 436 b 216 605 280 436 216 490 m 104 286 l 104 209 l 590 209 l 590 286 l 104 286 "},"ź":{"x_min":69.4375,"x_max":623.609375,"ha":694,"o":"m 404 970 l 281 766 l 351 725 l 491 911 l 404 970 m 97 634 l 97 547 l 462 547 l 69 66 l 69 -1 l 623 -1 l 623 93 b 581 84 606 95 601 84 l 204 84 l 591 566 l 591 634 l 97 634 "},"ű":{"x_min":86.109375,"x_max":611.109375,"ha":694,"o":"m 297 970 l 173 766 l 244 725 l 384 911 l 297 970 m 512 970 l 390 766 l 459 725 l 600 911 l 512 970 m 86 633 l 86 279 b 111 112 86 224 86 169 b 308 -16 147 29 225 -16 b 504 95 387 -16 462 26 l 502 48 b 505 0 502 31 502 15 l 611 0 b 602 56 604 18 602 38 l 602 633 l 502 633 l 502 284 b 477 159 502 236 498 198 b 330 65 448 105 391 65 b 209 143 281 65 234 93 b 187 279 187 187 187 237 l 187 633 l 86 633 "},"ń":{"x_min":94.4375,"x_max":598.609375,"ha":694,"o":"m 404 970 l 281 766 l 351 725 l 491 911 l 404 970 m 94 0 l 195 0 l 195 365 b 227 473 195 406 201 438 b 379 562 251 505 312 562 b 465 522 411 562 443 548 b 500 381 500 480 500 426 l 500 0 l 598 0 l 598 384 l 598 384 b 576 537 598 433 598 486 b 406 648 544 608 479 648 b 195 522 320 648 243 593 l 195 633 l 94 633 l 94 0 "},";":{"x_min":227.78125,"x_max":423.609375,"ha":694,"o":"m 423 26 b 327 141 423 97 376 141 b 247 62 281 141 247 104 b 286 1 247 25 273 9 b 318 -48 298 -6 318 -19 b 298 -105 318 -70 305 -94 b 227 -193 284 -127 261 -162 l 276 -234 b 423 26 373 -136 423 -45 m 412 506 b 330 586 412 550 376 586 b 248 506 284 586 248 550 b 330 427 248 462 284 427 b 412 506 376 427 412 462 "},"6":{"x_min":93.0625,"x_max":609.71875,"ha":694,"o":"m 398 875 b 129 659 294 875 183 811 b 93 393 100 577 93 476 b 158 100 93 291 102 183 b 362 -15 208 23 286 -15 b 609 275 494 -15 609 95 b 372 558 609 454 494 558 b 188 454 297 558 226 518 b 398 788 194 750 336 788 b 500 752 455 788 494 758 b 520 720 508 743 508 730 l 587 795 b 398 875 537 845 468 875 m 362 472 b 515 269 431 472 515 418 b 366 70 515 134 440 70 b 193 356 261 70 181 194 b 362 472 231 427 298 472 "},"n":{"x_min":94.4375,"x_max":598.609375,"ha":694,"o":"m 94 0 l 195 0 l 195 365 b 227 473 195 406 201 438 b 379 562 251 505 312 562 b 465 522 411 562 443 548 b 500 381 500 480 500 426 l 500 0 l 598 0 l 598 384 l 598 384 b 576 537 598 433 598 486 b 406 648 544 608 479 648 b 195 522 320 648 243 593 l 195 633 l 94 633 l 94 0 "},"¤":{"x_min":94.4375,"x_max":598.609375,"ha":694,"o":"m 94 681 l 172 604 b 131 479 147 568 131 525 b 172 354 131 431 147 388 l 94 276 l 143 226 l 220 304 b 347 262 256 277 300 262 b 473 302 394 262 437 277 l 550 226 l 598 276 l 522 352 b 563 479 548 387 563 431 b 522 605 563 526 548 569 l 598 681 l 550 731 l 472 654 b 347 694 437 679 394 694 b 222 652 301 694 256 679 l 143 731 l 94 681 m 347 618 b 487 479 425 618 487 555 b 347 338 487 401 425 338 b 208 479 270 338 208 401 b 347 618 208 555 270 618 "},"p":{"x_min":81.9375,"x_max":641.671875,"ha":694,"o":"m 81 633 l 83 -231 l 184 -231 l 184 83 b 375 -18 227 20 298 -18 b 641 323 505 -18 641 91 b 384 647 641 547 509 647 b 183 536 302 647 226 605 l 183 633 l 81 633 m 347 562 b 537 302 402 562 537 533 b 347 70 537 102 406 70 b 201 158 287 70 226 101 b 183 345 183 201 183 254 b 200 470 183 398 186 437 b 347 562 225 527 283 562 "},"‡":{"x_min":68.0625,"x_max":623.609375,"ha":694,"o":"m 300 905 l 300 633 l 68 633 l 68 550 l 300 550 l 300 166 l 68 166 l 68 84 l 300 84 l 300 -211 l 393 -211 l 393 84 l 623 84 l 623 166 l 393 166 l 393 550 l 623 550 l 623 633 l 393 633 l 393 905 l 300 905 "},"ň":{"x_min":94.4375,"x_max":598.609375,"ha":694,"o":"m 523 913 l 470 961 l 358 820 l 250 962 l 184 915 l 338 718 l 368 718 l 523 913 m 94 0 l 195 0 l 195 365 b 227 473 195 406 201 438 b 379 562 251 505 312 562 b 465 522 411 562 443 548 b 500 381 500 480 500 426 l 500 0 l 598 0 l 598 384 l 598 384 b 576 537 598 433 598 486 b 406 648 544 608 479 648 b 195 522 320 648 243 593 l 195 633 l 94 633 l 94 0 "},"⁴":{"x_min":140.28125,"x_max":559.71875,"ha":694,"o":"m 419 890 l 140 533 l 140 484 l 393 484 l 393 348 l 472 348 l 472 483 l 559 483 l 559 550 l 472 550 l 472 890 l 419 890 m 394 754 l 394 550 l 231 550 l 394 754 "},"ę":{"x_min":66.671875,"x_max":616.234375,"ha":694,"o":"m 358 648 b 66 312 206 648 66 540 b 362 -15 66 104 195 -15 b 456 -1 394 -15 426 -11 b 380 -140 405 -50 380 -100 b 495 -243 380 -197 426 -243 b 586 -219 527 -243 561 -233 l 587 -150 b 516 -176 547 -176 523 -176 b 462 -122 486 -176 462 -154 b 550 22 462 -81 501 -37 l 598 83 l 543 137 b 379 65 502 90 441 65 b 163 302 294 65 170 112 l 613 302 b 609 422 618 345 616 386 b 358 648 581 593 462 648 m 166 379 b 351 572 187 529 283 572 b 515 379 454 572 527 481 l 166 379 "},"S":{"x_min":70.828125,"x_max":631.9375,"ha":694,"o":"m 602 761 b 363 869 544 831 458 869 b 100 647 206 869 100 766 b 191 479 100 597 119 531 b 462 348 272 419 397 390 b 534 229 519 313 534 268 b 345 72 534 154 470 72 b 138 168 251 72 177 119 b 134 181 134 173 134 176 b 129 195 134 184 134 193 l 70 95 b 343 -15 138 22 236 -15 b 631 234 554 -15 631 126 b 563 391 631 280 618 340 b 287 533 488 462 366 487 b 200 662 215 576 200 627 b 355 788 200 729 256 788 b 531 704 436 788 498 752 b 534 690 536 698 534 695 b 541 679 534 681 538 679 l 602 761 "},"/":{"x_min":87.5,"x_max":605.5625,"ha":694,"o":"m 87 -18 l 169 -59 l 605 880 l 523 922 l 87 -18 "},"y":{"x_min":30.5625,"x_max":643.0625,"ha":694,"o":"m 62 633 l 320 1 l 300 -44 b 256 -118 288 -70 276 -97 b 168 -159 230 -147 197 -159 b 93 -122 120 -159 97 -127 b 81 -98 88 -115 90 -105 l 30 -188 b 168 -241 66 -223 115 -241 b 326 -173 225 -241 284 -220 b 381 -72 354 -141 368 -108 l 579 451 b 643 634 602 511 623 572 l 538 634 b 490 465 527 576 509 520 l 369 125 l 183 593 b 181 604 181 597 181 600 b 187 633 181 613 188 620 l 62 633 "},"g":{"x_min":52.78125,"x_max":658.328125,"ha":694,"o":"m 173 436 b 313 575 173 512 237 575 b 454 436 391 575 454 512 b 313 297 454 359 391 297 b 173 436 236 297 173 359 m 319 654 b 83 430 193 654 83 554 b 176 258 83 361 118 295 b 104 136 130 219 104 176 b 155 51 104 109 115 72 b 52 -88 87 8 52 -38 b 338 -240 52 -158 116 -240 b 631 -45 554 -240 631 -130 b 533 91 631 9 600 65 b 318 109 466 119 390 109 b 227 118 270 109 240 113 b 188 159 202 125 188 140 b 234 230 188 193 227 225 b 315 216 259 220 287 216 b 543 433 440 216 543 316 b 511 541 543 472 531 509 b 622 572 544 561 583 572 b 658 568 634 572 645 570 l 647 650 b 470 594 583 655 519 634 b 319 654 430 633 377 654 m 223 33 b 329 25 247 30 280 27 b 463 22 376 23 427 27 b 540 -51 522 12 540 -23 b 480 -136 540 -79 523 -112 b 337 -163 433 -161 380 -163 b 206 -143 308 -163 254 -162 b 144 -65 155 -122 144 -87 b 223 33 144 -19 187 13 "},"ĸ":{"x_min":91.671875,"x_max":663.890625,"ha":694,"o":"m 91 633 l 91 -1 l 191 -1 l 191 238 l 276 316 l 534 -6 b 654 -1 534 -6 588 -1 b 663 -1 658 -1 661 -1 l 352 377 l 620 629 l 584 629 b 509 637 559 629 534 630 l 191 341 l 191 597 b 197 612 191 602 193 606 b 205 630 200 616 205 622 b 205 633 205 631 205 631 l 91 633 "},"²":{"x_min":154.171875,"x_max":555.5625,"ha":694,"o":"m 154 769 l 218 725 b 231 754 225 738 225 744 b 355 812 256 784 301 812 b 459 727 422 812 459 772 b 387 620 459 686 427 652 b 166 411 345 586 244 518 l 166 350 l 555 350 l 555 437 b 536 431 545 441 540 434 b 522 426 530 426 527 426 l 269 426 b 479 600 347 512 423 548 b 543 729 498 618 543 662 b 358 884 543 812 468 884 b 154 769 273 884 195 841 "},"ë":{"x_min":66.671875,"x_max":616.234375,"ha":694,"o":"m 297 852 b 227 922 297 890 266 922 b 156 852 188 922 156 890 b 227 781 156 813 188 781 b 297 852 266 781 297 813 m 544 852 b 475 922 544 890 513 922 b 405 852 437 922 405 890 b 475 781 405 813 437 781 b 544 852 513 781 544 813 m 358 648 b 66 309 206 648 66 540 b 370 -15 66 97 198 -15 b 598 83 462 -15 544 18 l 543 137 b 379 65 502 90 441 65 b 163 302 294 65 170 112 l 613 302 b 609 423 618 345 616 387 b 358 648 580 594 462 648 m 166 379 b 351 572 187 529 283 572 b 515 379 454 572 527 481 l 166 379 "},"ƒ":{"x_min":25,"x_max":665.28125,"ha":694,"o":"m 665 861 b 511 934 627 906 570 934 b 329 816 437 934 366 894 b 294 658 302 765 298 711 l 284 531 l 111 531 l 111 452 l 279 452 l 247 36 b 216 -100 244 -5 240 -58 b 145 -150 195 -137 168 -150 b 95 -123 120 -150 102 -136 b 80 -105 91 -118 88 -109 l 25 -194 b 137 -244 52 -226 94 -244 b 295 -144 194 -244 255 -212 b 340 33 329 -88 336 -29 l 375 452 l 551 452 l 551 531 l 380 531 l 390 645 b 415 786 393 688 395 741 b 512 855 437 836 477 855 b 605 795 558 855 591 823 b 608 779 608 788 608 784 b 620 769 609 772 615 769 l 665 861 "},"J":{"x_min":68.0625,"x_max":633.328125,"ha":694,"o":"m 237 865 l 237 783 l 404 783 l 404 287 b 373 125 404 234 405 172 b 270 69 350 90 312 69 b 140 133 198 69 144 129 b 131 158 134 141 140 151 l 68 79 b 269 -16 119 18 193 -16 b 466 98 351 -16 426 23 b 500 288 500 161 500 226 l 500 783 l 633 783 l 633 865 l 237 865 "},"Ã":{"x_min":19.4375,"x_max":670.828125,"ha":694,"o":"m 181 948 b 272 1034 215 1002 236 1034 b 451 929 333 1034 370 929 b 588 1027 502 929 541 968 l 537 1083 b 456 1009 506 1041 491 1009 b 387 1054 430 1009 409 1030 b 276 1112 369 1072 331 1112 b 119 993 222 1112 170 1073 l 181 948 m 19 -1 l 115 -1 l 200 252 l 473 252 l 569 0 l 670 0 l 336 880 l 325 880 l 19 -1 m 452 327 l 218 327 l 330 656 l 452 327 "},"ŕ":{"x_min":137.5,"x_max":636.109375,"ha":694,"o":"m 404 970 l 281 766 l 351 725 l 491 911 l 404 970 m 137 633 l 137 -1 l 237 -1 l 237 306 b 281 455 237 345 238 387 b 461 562 340 547 415 562 b 565 515 513 562 547 537 b 588 483 573 504 577 493 l 636 579 b 466 648 595 620 537 648 b 237 511 373 648 279 601 l 241 633 l 137 633 "},"©":{"x_min":18.0625,"x_max":690.28125,"ha":694,"o":"m 363 587 b 158 381 251 587 158 501 b 361 168 158 266 248 168 b 533 262 429 168 494 204 l 472 304 b 368 241 451 265 411 241 b 236 391 294 241 236 306 b 366 518 236 477 300 518 b 458 459 434 518 456 470 b 463 431 461 451 456 441 l 536 459 b 363 587 518 533 450 587 m 354 25 b 690 380 537 25 690 181 b 355 734 690 579 538 734 b 18 379 170 734 18 579 b 354 25 18 181 170 25 m 81 380 b 356 676 81 547 206 676 b 630 381 505 676 630 547 b 356 86 630 215 505 86 b 81 380 206 86 81 215 "},"˘":{"x_min":138.890625,"x_max":550,"ha":694,"o":"m 190 897 l 138 833 b 345 726 194 766 270 726 b 550 838 430 726 504 775 l 511 895 b 345 798 463 834 404 798 b 190 897 277 798 222 847 "},"Ă":{"x_min":19.4375,"x_max":670.828125,"ha":694,"o":"m 176 1088 l 126 1025 b 333 918 181 958 256 918 b 537 1030 416 918 490 966 l 498 1087 b 333 990 450 1026 390 990 b 176 1088 263 990 208 1038 m 19 -1 l 115 -1 l 200 252 l 473 252 l 569 0 l 670 0 l 336 880 l 325 880 l 19 -1 m 452 327 l 218 327 l 330 656 l 452 327 "},"↑":{"x_min":80.5625,"x_max":611.109375,"ha":694,"o":"m 80 559 l 140 511 l 302 711 l 302 -47 l 394 -47 l 394 711 l 541 511 l 611 558 l 370 888 l 340 888 l 80 559 "},"D":{"x_min":73.609375,"x_max":638.890625,"ha":694,"o":"m 73 865 l 73 -1 l 259 -1 b 447 33 327 -1 386 1 b 638 433 570 97 638 244 b 477 818 638 600 588 745 b 276 865 415 859 352 865 l 73 865 m 165 781 l 270 781 b 433 734 325 781 379 779 b 540 420 513 668 540 544 b 416 113 540 255 486 161 b 254 75 362 77 308 75 l 165 75 l 165 781 "},"ÿ":{"x_min":30.5625,"x_max":643.0625,"ha":694,"o":"m 295 852 b 225 922 295 890 263 922 b 155 852 186 922 155 890 b 225 781 155 813 186 781 b 295 852 263 781 295 813 m 541 852 b 472 922 541 890 511 922 b 402 852 434 922 402 890 b 472 781 402 813 434 781 b 541 852 511 781 541 813 m 62 633 l 320 1 l 300 -44 b 256 -118 288 -70 276 -97 b 168 -159 230 -147 197 -159 b 93 -122 120 -159 97 -127 b 81 -98 88 -115 90 -105 l 30 -188 b 168 -241 66 -223 115 -241 b 326 -173 225 -241 284 -220 b 381 -72 354 -141 368 -108 l 579 451 b 643 634 602 511 623 572 l 538 634 b 490 465 527 576 509 520 l 369 125 l 183 593 b 181 604 181 597 181 600 b 187 633 181 613 188 620 l 62 633 "},"ĺ":{"x_min":108.328125,"x_max":584.71875,"ha":694,"o":"m 116 922 l 116 841 l 297 841 l 297 79 l 108 79 l 108 0 l 584 0 l 584 79 l 397 79 l 397 922 l 116 922 m 427 1158 l 215 1033 l 247 976 l 481 1061 l 427 1158 "},"ł":{"x_min":108.328125,"x_max":584.71875,"ha":694,"o":"m 116 922 l 116 841 l 297 841 l 297 477 l 187 440 l 187 348 l 297 386 l 297 79 l 108 79 l 108 0 l 584 0 l 584 79 l 397 79 l 397 420 l 523 462 l 523 565 b 487 544 511 555 501 550 l 397 513 l 397 922 l 116 922 "},"Ł":{"x_min":26.390625,"x_max":619.4375,"ha":694,"o":"m 101 865 l 101 422 l 26 398 l 26 313 l 101 337 l 101 -1 l 619 -1 l 619 81 l 201 81 l 201 369 l 468 454 l 468 543 b 431 530 455 537 444 534 l 201 455 l 201 818 b 213 861 201 840 213 843 b 213 865 213 862 213 863 l 101 865 "},"$":{"x_min":81.9375,"x_max":637.5,"ha":694,"o":"m 325 902 l 325 819 b 109 618 197 802 109 718 b 248 434 109 568 131 490 b 325 404 273 422 300 412 l 325 100 b 152 184 252 106 191 143 b 148 200 147 190 147 193 b 141 212 148 201 148 209 l 81 130 b 325 19 144 62 229 25 l 325 -65 l 406 -65 l 406 22 b 637 251 563 41 637 151 b 498 437 637 377 527 425 b 406 472 469 450 438 461 l 406 738 b 538 669 466 730 509 704 b 544 661 543 663 544 662 b 545 648 547 656 545 652 b 552 638 545 643 550 640 l 612 715 b 406 820 562 776 488 812 l 406 873 b 416 898 406 887 416 887 b 415 902 416 900 415 901 l 325 902 m 406 379 b 477 351 434 370 459 361 b 547 244 536 319 547 273 b 406 102 547 181 495 119 l 406 379 m 325 500 b 276 523 306 506 291 515 b 201 630 215 558 201 600 b 325 740 201 679 237 730 l 325 500 "},"w":{"x_min":20.828125,"x_max":666.671875,"ha":694,"o":"m 20 634 l 148 -1 l 238 -1 l 350 409 l 468 -1 l 561 -1 b 666 633 604 208 640 420 l 575 633 b 515 125 577 556 570 486 l 381 575 l 320 575 l 211 123 l 119 581 b 120 606 116 591 116 595 b 122 634 122 613 126 623 l 20 634 "},"\\":{"x_min":87.5,"x_max":605.5625,"ha":694,"o":"m 605 -18 l 170 922 l 87 880 l 523 -59 l 605 -18 "},"Ì":{"x_min":112.5,"x_max":559.71875,"ha":694,"o":"m 251 1098 l 195 1001 l 430 916 l 462 973 l 251 1098 m 122 865 l 122 783 l 281 783 l 281 79 l 112 79 l 112 -1 l 559 -1 l 559 77 l 379 77 l 379 783 l 550 783 l 550 865 l 122 865 "},"Ç":{"x_min":55.5625,"x_max":650,"ha":694,"o":"m 384 872 b 55 426 250 872 55 773 b 361 -13 55 111 222 -2 l 347 -119 l 387 -119 b 438 -129 404 -119 423 -119 b 454 -152 450 -134 454 -144 b 390 -186 454 -165 444 -186 b 252 -137 348 -186 295 -172 l 218 -194 b 381 -245 269 -231 329 -245 b 533 -143 484 -245 533 -193 b 491 -79 533 -116 518 -91 b 437 -68 473 -69 455 -68 l 415 -66 l 420 -12 b 637 127 509 -1 590 50 l 566 173 b 390 69 526 108 456 69 b 150 436 262 69 150 201 b 381 794 150 665 259 794 b 547 693 448 794 512 754 b 552 679 550 688 552 684 b 551 668 552 675 551 672 b 558 655 551 666 551 659 l 650 700 b 384 872 604 804 500 872 "},"C":{"x_min":55.5625,"x_max":650,"ha":694,"o":"m 384 872 b 55 426 250 872 55 773 b 384 -15 55 93 241 -15 b 637 127 487 -15 583 38 l 566 173 b 390 69 526 108 456 69 b 150 436 262 69 150 201 b 381 794 150 665 259 794 b 547 693 448 794 512 754 b 552 679 550 688 552 684 b 551 668 552 675 551 672 b 558 655 551 666 551 659 l 650 700 b 384 872 604 804 500 872 "},"!":{"x_min":250,"x_max":413.890625,"ha":694,"o":"m 413 65 b 331 148 413 111 377 148 b 250 65 286 148 250 111 b 331 -16 250 20 286 -16 b 413 65 377 -16 413 20 m 334 926 b 273 881 309 926 286 912 b 263 822 266 866 263 848 b 277 652 263 777 272 744 l 297 269 l 366 269 l 393 652 b 405 811 395 705 405 758 b 400 868 405 843 402 859 b 334 926 388 909 359 926 "},"ç":{"x_min":77.78125,"x_max":633.328125,"ha":694,"o":"m 633 529 b 395 647 583 602 498 647 b 77 316 209 647 77 506 b 361 -15 77 136 195 0 l 347 -119 l 387 -119 b 438 -129 404 -119 423 -119 b 454 -152 450 -134 454 -144 b 390 -186 454 -165 444 -186 b 252 -137 348 -186 295 -172 l 218 -194 b 381 -245 269 -231 329 -245 b 533 -143 484 -245 533 -193 b 491 -79 533 -116 518 -91 b 437 -68 473 -69 455 -68 l 415 -66 l 420 -15 b 623 84 498 -6 570 26 l 566 151 b 398 75 523 102 461 75 b 180 326 275 75 180 177 b 390 561 180 470 273 561 b 554 477 498 561 550 486 b 562 445 559 468 551 454 l 633 529 "},"È":{"x_min":80.5625,"x_max":611.109375,"ha":694,"o":"m 251 1098 l 195 1001 l 430 916 l 462 973 l 251 1098 m 80 865 l 80 0 l 608 0 l 608 86 l 173 86 l 173 406 l 534 406 l 534 495 l 173 495 l 173 779 l 611 779 l 611 865 l 80 865 "},"X":{"x_min":55.5625,"x_max":648.609375,"ha":694,"o":"m 525 865 l 347 537 l 165 865 l 61 865 l 291 440 l 55 0 l 162 0 l 347 341 l 540 0 l 648 0 l 404 443 l 622 865 l 525 865 "},"ô":{"x_min":55.5625,"x_max":638.890625,"ha":694,"o":"m 184 755 l 237 708 l 350 848 l 458 706 l 523 754 l 369 951 l 340 951 l 184 755 m 638 313 b 355 647 638 533 500 647 b 55 311 194 647 55 508 b 352 -18 55 118 193 -18 b 638 313 502 -18 638 102 m 348 562 b 537 309 440 562 537 483 b 354 69 537 150 445 69 b 161 320 252 69 161 163 b 348 562 161 476 251 562 "},"đ":{"x_min":51.390625,"x_max":659.71875,"ha":694,"o":"m 323 568 b 486 444 379 568 461 538 b 497 309 494 415 497 380 b 483 193 497 261 494 226 b 327 73 459 118 393 73 b 148 337 255 73 148 129 b 323 568 148 519 250 568 m 598 754 l 659 754 l 659 829 l 598 829 l 598 883 b 604 902 598 891 598 894 b 611 923 606 906 612 913 l 505 923 l 505 829 l 400 829 l 400 754 l 505 754 l 505 541 b 319 650 475 606 406 650 b 51 322 198 650 51 563 b 304 -15 51 87 181 -15 b 500 101 386 -15 461 30 l 500 45 b 506 0 500 30 501 15 l 605 0 b 600 58 601 18 600 38 l 598 754 "},"}":{"x_min":127.78125,"x_max":620.828125,"ha":694,"o":"m 620 393 l 594 393 b 501 425 569 393 530 393 b 465 543 468 459 465 508 b 468 641 465 576 468 608 b 400 827 468 694 461 772 b 169 883 333 888 244 883 l 127 883 l 127 804 l 175 804 b 315 787 236 804 279 811 b 372 658 369 754 372 686 b 368 559 372 625 368 594 b 388 448 368 527 370 486 b 488 355 409 406 445 373 b 370 138 436 337 370 284 b 375 22 370 95 375 59 b 318 -119 375 -25 368 -86 b 180 -143 280 -145 237 -143 l 129 -143 l 129 -220 l 179 -220 b 395 -179 265 -220 336 -225 b 473 22 469 -123 473 -27 b 468 161 473 76 468 118 b 504 287 468 220 477 261 b 593 315 533 316 569 315 l 620 315 l 620 393 "},"â":{"x_min":68.0625,"x_max":602.78125,"ha":694,"o":"m 194 755 l 247 708 l 359 848 l 468 706 l 533 754 l 379 951 l 348 951 l 194 755 m 125 559 l 173 495 b 356 566 226 550 297 566 b 487 505 431 566 469 534 b 506 395 508 470 506 429 l 506 373 l 487 373 b 212 344 393 373 293 373 b 68 163 112 308 68 233 b 280 -16 68 70 148 -16 b 508 69 358 -16 438 12 l 508 0 l 602 0 l 602 393 b 572 543 602 444 601 493 b 351 647 530 611 450 647 b 125 559 266 647 184 620 m 511 297 l 511 254 b 468 134 511 222 511 180 b 301 59 444 111 384 59 b 168 169 216 59 168 113 b 279 287 168 216 200 268 b 488 297 337 301 422 297 l 511 297 "},"ø":{"x_min":55.5625,"x_max":638.890625,"ha":694,"o":"m 348 562 b 420 545 373 562 398 556 l 206 151 b 161 320 179 194 161 251 b 348 562 161 476 251 562 m 638 313 b 534 579 638 434 595 523 l 590 680 l 515 719 l 463 625 b 355 647 430 640 393 647 b 55 311 194 647 55 508 b 158 61 55 206 95 119 l 95 -52 l 168 -88 l 225 13 b 352 -18 263 -6 306 -18 b 638 313 502 -18 638 102 m 486 490 b 537 309 516 448 537 388 b 354 69 537 150 445 69 b 268 93 323 69 294 77 l 486 490 "},"ŋ":{"x_min":94.4375,"x_max":598.609375,"ha":694,"o":"m 94 0 l 195 0 l 195 365 b 227 473 195 406 201 438 b 379 562 251 505 312 562 b 465 522 411 562 443 548 b 500 381 500 480 500 426 l 500 61 b 469 -93 500 12 500 -45 b 366 -151 444 -133 404 -151 b 287 -123 322 -151 291 -127 b 276 -105 284 -118 286 -106 l 227 -198 b 363 -244 266 -229 315 -244 b 573 -98 451 -244 536 -193 b 598 77 598 -38 598 19 l 598 384 b 576 537 598 433 598 486 b 406 648 544 608 479 648 b 195 522 320 648 243 593 l 195 633 l 94 633 l 94 0 "},"Ä":{"x_min":19.4375,"x_max":670.828125,"ha":694,"o":"m 279 1025 b 209 1094 279 1063 248 1094 b 138 1025 170 1094 138 1063 b 209 954 138 986 170 954 b 279 1025 248 954 279 986 m 526 1025 b 456 1094 526 1063 495 1094 b 387 1025 419 1094 387 1063 b 456 954 387 986 419 954 b 526 1025 495 954 526 986 m 19 -1 l 115 -1 l 200 252 l 473 252 l 569 0 l 670 0 l 336 880 l 325 880 l 19 -1 m 452 327 l 218 327 l 330 656 l 452 327 "},"ř":{"x_min":137.5,"x_max":636.109375,"ha":694,"o":"m 523 913 l 470 961 l 358 820 l 250 962 l 184 915 l 338 718 l 368 718 l 523 913 m 137 633 l 137 -1 l 237 -1 l 237 306 b 281 455 237 345 238 387 b 461 562 340 547 415 562 b 565 515 513 562 547 537 b 588 483 573 504 577 493 l 636 579 b 466 648 595 620 537 648 b 237 511 373 648 279 601 l 241 633 l 137 633 "},"N":{"x_min":69.4375,"x_max":629.546875,"ha":694,"o":"m 69 0 l 162 0 l 162 680 l 543 -1 l 620 -1 l 620 829 b 626 848 620 838 622 841 b 629 865 627 851 630 858 l 526 865 l 526 223 l 163 865 l 69 865 l 69 0 "},"⁄":{"x_min":104.171875,"x_max":605.5625,"ha":694,"o":"m 104 -23 l 169 -59 l 605 884 l 540 922 l 104 -23 "},"2":{"x_min":101.390625,"x_max":609.71875,"ha":694,"o":"m 106 730 l 177 673 b 190 705 186 686 181 694 b 337 784 211 737 262 784 b 504 620 430 784 504 713 b 352 381 504 515 415 438 b 101 61 254 293 173 204 l 101 0 l 609 0 l 609 95 b 590 90 600 100 593 93 b 576 84 584 84 581 84 l 212 84 b 448 354 284 209 386 295 b 600 627 511 413 600 502 b 350 870 600 762 490 870 b 106 730 251 870 158 818 "},"ü":{"x_min":86.109375,"x_max":611.109375,"ha":694,"o":"m 295 852 b 225 922 295 890 263 922 b 155 852 186 922 155 890 b 225 781 155 813 186 781 b 295 852 263 781 295 813 m 541 852 b 472 922 541 890 511 922 b 402 852 434 922 402 890 b 472 781 402 813 434 781 b 541 852 511 781 541 813 m 86 633 l 86 279 b 111 112 86 224 86 169 b 308 -16 147 29 225 -16 b 504 95 387 -16 462 26 l 502 48 b 505 0 502 31 502 15 l 611 0 b 602 56 604 18 602 38 l 602 633 l 502 633 l 502 284 b 477 159 502 236 498 198 b 330 65 448 105 391 65 b 209 143 281 65 234 93 b 187 279 187 187 187 237 l 187 633 l 86 633 "},"˜":{"x_min":125,"x_max":594.4375,"ha":694,"o":"m 187 773 b 277 859 220 827 241 859 b 458 754 338 859 377 754 b 594 852 509 754 547 793 l 543 908 b 462 834 513 866 497 834 b 393 879 437 834 416 855 b 281 937 375 897 338 937 b 125 818 227 937 176 898 l 187 773 "},"Ó":{"x_min":40.28125,"x_max":654.171875,"ha":694,"o":"m 451 1098 l 238 973 l 270 916 l 506 1001 l 451 1098 m 654 430 b 601 711 654 511 648 618 b 351 873 544 822 445 873 b 40 433 222 873 40 773 b 352 -13 40 93 219 -13 b 602 154 445 -13 545 38 b 654 430 648 247 654 354 m 347 783 b 523 645 408 783 483 747 b 556 418 552 573 556 490 b 518 198 556 361 554 272 b 352 80 477 113 411 80 b 136 445 255 80 136 170 b 347 783 136 704 256 783 "},"ˇ":{"x_min":184.71875,"x_max":523.609375,"ha":694,"o":"m 523 913 l 470 961 l 358 820 l 250 962 l 184 915 l 338 718 l 368 718 l 523 913 "},"Ÿ":{"x_min":38.890625,"x_max":655.5625,"ha":694,"o":"m 288 1025 b 219 1094 288 1063 258 1094 b 148 1025 180 1094 148 1063 b 219 954 148 986 180 954 b 288 1025 258 954 288 986 m 536 1025 b 466 1094 536 1063 505 1094 b 397 1025 427 1094 397 1063 b 466 954 397 986 429 954 b 536 1025 505 954 536 986 m 38 865 l 305 340 l 305 0 l 411 0 l 411 340 l 655 865 l 552 865 l 361 445 l 148 865 l 38 865 "},"€":{"x_min":44.4375,"x_max":644.4375,"ha":694,"o":"m 644 795 b 456 870 595 845 529 870 b 183 711 369 870 254 834 b 133 575 159 670 144 623 l 62 575 l 44 494 l 122 494 b 118 405 119 465 118 434 b 118 383 118 397 118 390 l 62 383 l 44 302 l 125 302 b 447 -16 161 45 336 -16 b 641 54 520 -16 588 8 l 602 123 b 454 68 561 87 508 68 b 269 161 388 68 318 94 b 213 302 241 198 223 245 l 459 302 l 490 383 l 205 383 b 204 412 205 393 204 402 b 208 494 204 443 205 470 l 533 494 l 562 575 l 219 575 b 226 601 222 584 223 594 b 451 791 266 743 368 791 b 597 730 544 791 595 731 b 609 701 605 720 600 709 l 644 795 "},"ß":{"x_min":76.390625,"x_max":644.4375,"ha":694,"o":"m 76 0 l 170 0 l 170 588 b 211 779 170 650 172 720 b 337 848 243 826 291 848 b 488 686 419 848 488 777 b 400 537 488 620 452 561 b 336 526 376 527 356 526 l 297 526 l 297 447 l 338 447 b 461 419 383 447 420 444 b 551 250 512 387 551 323 b 387 73 551 150 476 73 b 294 105 354 73 320 84 l 244 27 b 388 -15 287 0 338 -15 b 644 250 531 -15 644 100 b 472 498 644 365 576 465 b 583 683 540 533 583 604 b 331 927 583 815 470 927 b 105 777 237 927 147 875 b 76 586 76 713 76 650 l 76 0 "},"s":{"x_min":77.78125,"x_max":609.71875,"ha":694,"o":"m 600 550 b 362 648 541 613 456 648 b 119 472 215 648 119 566 b 273 308 119 361 238 320 b 444 250 327 288 397 272 b 506 169 497 225 506 191 b 344 69 506 109 434 69 b 145 156 236 69 166 134 b 141 172 141 162 141 166 b 136 184 141 173 143 181 l 77 86 b 345 -15 152 16 250 -15 b 609 183 519 -15 609 87 b 516 326 609 226 591 284 b 283 409 445 366 343 380 b 220 487 231 434 220 465 b 354 573 220 537 283 573 b 530 486 445 573 506 518 b 533 473 534 481 533 477 b 541 462 533 465 538 462 l 600 550 "},"?":{"x_min":87.5,"x_max":602.78125,"ha":694,"o":"m 444 61 b 362 140 444 104 406 140 b 279 61 316 140 279 104 b 362 -18 279 16 316 -18 b 444 61 406 -18 444 16 m 87 777 l 158 712 b 345 831 202 786 276 831 b 493 686 429 831 493 768 b 379 491 493 594 420 537 b 313 313 316 425 313 375 l 313 255 l 404 255 l 404 313 b 465 454 404 362 408 404 b 602 679 511 494 602 548 b 355 923 602 808 512 923 b 87 777 251 923 148 870 "},"Ű":{"x_min":69.4375,"x_max":634.71875,"ha":694,"o":"m 569 1125 l 387 952 l 431 894 l 634 1034 l 569 1125 m 323 1125 l 140 952 l 184 894 l 387 1034 l 323 1125 m 69 865 l 69 297 l 69 297 b 102 118 69 236 70 177 b 348 -16 150 29 247 -16 b 594 119 448 -16 545 27 b 629 302 627 179 629 238 l 629 865 l 537 865 l 537 300 b 515 168 537 255 536 212 b 350 66 483 101 418 66 b 186 169 281 66 216 102 b 165 297 165 211 165 254 l 165 820 b 170 838 165 826 165 831 b 179 858 173 843 179 850 b 177 865 179 859 179 862 l 69 865 "},"c":{"x_min":77.78125,"x_max":633.328125,"ha":694,"o":"m 633 529 b 395 647 583 602 498 647 b 77 316 209 647 77 506 b 390 -16 77 125 209 -16 b 623 84 477 -16 563 19 l 566 151 b 398 75 523 102 461 75 b 180 326 275 75 180 177 b 390 561 180 470 273 561 b 554 477 498 561 550 486 b 562 445 559 468 551 454 l 633 529 "},"¶":{"x_min":87.5,"x_max":604.171875,"ha":694,"o":"m 604 923 l 430 923 b 230 894 366 923 297 923 b 87 687 138 854 87 773 b 336 445 87 562 195 455 l 336 -95 l 419 -95 l 419 844 l 523 844 l 523 -95 l 604 -95 l 604 923 "},"•":{"x_min":236.109375,"x_max":472.21875,"ha":694,"o":"m 472 411 b 354 526 472 475 419 526 b 236 411 288 526 236 475 b 354 295 236 347 288 295 b 472 411 420 295 472 347 "},"(":{"x_min":191.671875,"x_max":590.28125,"ha":694,"o":"m 543 925 b 191 358 329 830 191 612 b 544 -240 191 105 325 -125 l 590 -166 b 288 362 400 -56 288 147 b 547 833 288 561 384 738 b 559 838 550 836 554 838 b 573 836 563 838 568 836 b 586 838 576 836 580 837 l 543 925 "},"­":{"x_min":97.21875,"x_max":597.21875,"ha":694,"o":"m 97 481 l 97 390 l 597 390 l 597 481 l 97 481 "},":":{"x_min":248.609375,"x_max":412.5,"ha":694,"o":"m 412 506 b 330 586 412 550 376 586 b 248 506 284 586 248 550 b 330 427 248 462 284 427 b 412 506 376 427 412 462 m 412 63 b 330 143 412 106 376 143 b 248 63 284 143 248 106 b 330 -16 248 19 284 -16 b 412 63 376 -16 412 19 "},"Û":{"x_min":69.4375,"x_max":629.171875,"ha":694,"o":"m 156 961 l 195 913 l 350 1008 l 494 909 l 540 962 l 368 1098 l 338 1098 l 156 961 m 69 865 l 69 297 l 69 297 b 102 118 69 236 70 177 b 348 -16 150 29 247 -16 b 594 119 448 -16 545 27 b 629 302 627 179 629 238 l 629 865 l 537 865 l 537 300 b 515 168 537 255 536 212 b 350 66 483 101 418 66 b 186 169 281 66 216 102 b 165 297 165 211 165 254 l 165 820 b 170 838 165 826 165 831 b 179 858 173 843 179 850 b 177 865 179 859 179 862 l 69 865 "},"V":{"x_min":34.71875,"x_max":663.890625,"ha":694,"o":"m 34 865 l 329 -6 l 373 -6 l 663 865 l 568 865 l 358 200 l 136 865 l 34 865 "},"ś":{"x_min":77.78125,"x_max":609.71875,"ha":694,"o":"m 404 970 l 281 766 l 351 725 l 491 911 l 404 970 m 600 550 b 362 648 541 613 456 648 b 119 472 215 648 119 566 b 273 308 119 361 238 320 b 444 250 327 288 397 272 b 506 169 497 225 506 191 b 344 69 506 109 434 69 b 145 156 236 69 166 134 b 141 172 141 162 141 166 b 136 184 141 173 143 181 l 77 86 b 345 -15 152 16 250 -15 b 609 183 519 -15 609 87 b 516 326 609 226 591 284 b 283 409 445 366 343 380 b 220 487 231 434 220 465 b 354 573 220 537 283 573 b 530 486 445 573 506 518 b 533 473 534 481 533 477 b 541 462 533 465 538 462 l 600 550 "}," ":{"x_min":0,"x_max":0,"ha":694},"@":{"x_min":43.0625,"x_max":645.828125,"ha":694,"o":"m 602 41 l 566 108 b 416 62 522 79 470 62 b 122 438 281 62 122 168 b 372 804 122 688 251 804 b 558 616 476 804 558 719 l 537 616 b 373 594 484 616 429 616 b 241 411 287 559 241 486 b 422 230 241 311 323 230 b 561 295 476 230 526 254 l 561 243 l 645 243 l 645 523 b 613 723 645 590 644 656 b 376 877 569 822 476 877 b 43 434 225 877 43 750 b 408 -16 43 112 236 -16 b 602 41 477 -16 545 4 m 561 547 l 561 520 b 541 370 561 465 562 412 b 438 306 519 329 479 306 b 329 415 377 306 329 355 b 383 513 329 451 345 488 b 538 547 430 547 488 547 l 561 547 "},"¾":{"x_min":15.28125,"x_max":662.5,"ha":694,"o":"m 112 -23 l 176 -59 l 612 884 l 547 922 l 112 -23 m 176 948 b 29 879 120 948 66 923 l 69 838 b 173 890 95 872 136 890 b 255 825 223 890 255 858 b 163 768 255 798 236 768 b 141 768 155 768 148 768 l 141 712 b 175 715 152 713 162 715 b 272 654 259 715 272 673 b 173 581 272 613 229 581 b 81 618 122 581 87 612 b 66 648 72 627 76 638 l 15 591 b 173 519 54 545 112 519 b 340 647 261 519 340 575 b 259 743 340 694 306 734 b 322 829 295 754 322 788 b 176 948 322 893 259 948 m 548 334 l 326 50 l 326 11 l 529 11 l 529 -97 l 591 -97 l 591 9 l 662 9 l 662 62 l 591 62 l 591 334 l 548 334 m 529 226 l 529 62 l 400 62 l 529 226 "},"i":{"x_min":138.890625,"x_max":550,"ha":694,"o":"m 147 634 l 147 552 l 300 552 l 300 79 l 138 79 l 138 0 l 550 0 l 550 79 l 401 79 l 401 634 l 147 634 m 352 909 b 280 838 312 909 280 877 b 352 768 280 800 312 768 b 425 838 393 768 425 800 b 352 909 425 877 393 909 "},"m":{"x_min":51.390625,"x_max":652.796875,"ha":694,"o":"m 51 0 l 143 0 l 143 422 b 163 513 143 452 145 480 b 240 572 186 555 213 572 b 298 523 262 572 287 558 b 305 440 306 497 305 466 l 305 0 l 398 0 l 398 419 b 425 519 398 452 401 479 b 498 576 436 536 459 576 b 548 540 519 576 538 563 b 558 448 561 513 558 477 l 558 -1 l 652 -1 l 652 450 b 626 598 652 502 654 555 b 527 648 602 634 562 648 b 384 556 466 648 409 612 b 273 648 375 609 330 648 b 143 570 220 648 172 615 l 144 633 l 51 633 l 51 0 "},"ż":{"x_min":69.4375,"x_max":623.609375,"ha":694,"o":"m 97 634 l 97 547 l 462 547 l 69 66 l 69 -1 l 623 -1 l 623 93 b 581 84 606 95 601 84 l 204 84 l 591 566 l 591 634 l 97 634 m 352 909 b 280 838 312 909 280 877 b 352 768 280 800 312 768 b 425 838 393 768 425 800 b 352 909 425 877 393 909 "},"ő":{"x_min":55.5625,"x_max":638.890625,"ha":694,"o":"m 297 970 l 173 766 l 244 725 l 384 911 l 297 970 m 512 970 l 390 766 l 459 725 l 600 911 l 512 970 m 638 313 b 355 647 638 533 500 647 b 55 311 194 647 55 508 b 352 -18 55 118 193 -18 b 638 313 502 -18 638 102 m 348 562 b 537 309 440 562 537 483 b 354 69 537 150 445 69 b 161 320 252 69 161 163 b 348 562 161 476 251 562 "},"ž":{"x_min":69.4375,"x_max":623.609375,"ha":694,"o":"m 523 913 l 470 961 l 358 820 l 250 962 l 184 915 l 338 718 l 368 718 l 523 913 m 97 634 l 97 547 l 462 547 l 69 66 l 69 -1 l 623 -1 l 623 93 b 581 84 606 95 601 84 l 204 84 l 591 566 l 591 634 l 97 634 "},"á":{"x_min":68.0625,"x_max":602.78125,"ha":694,"o":"m 404 970 l 281 766 l 351 725 l 491 911 l 404 970 m 125 559 l 173 495 b 356 566 226 550 297 566 b 487 505 431 566 469 534 b 506 395 508 470 506 429 l 506 373 l 487 373 b 212 344 393 373 293 373 b 68 163 112 308 68 233 b 280 -16 68 70 148 -16 b 508 69 358 -16 438 12 l 508 0 l 602 0 l 602 393 b 572 543 602 444 601 493 b 351 647 530 611 450 647 b 125 559 266 647 184 620 m 511 297 l 511 254 b 468 134 511 222 511 180 b 301 59 444 111 384 59 b 168 169 216 59 168 113 b 279 287 168 216 200 268 b 488 297 337 301 422 297 l 511 297 "},"×":{"x_min":116.671875,"x_max":595.828125,"ha":694,"o":"m 530 698 l 355 515 l 183 698 l 116 634 l 291 450 l 116 268 l 179 206 l 352 386 l 527 200 l 593 263 l 416 451 l 595 637 l 530 698 "},"İ":{"x_min":112.5,"x_max":559.71875,"ha":694,"o":"m 329 1098 b 256 1027 288 1098 256 1066 b 329 955 256 987 288 955 b 401 1027 368 955 401 987 b 329 1098 401 1066 368 1098 m 122 865 l 122 783 l 281 783 l 281 79 l 112 79 l 112 -1 l 559 -1 l 559 77 l 379 77 l 379 783 l 550 783 l 550 865 l 122 865 "},"Ě":{"x_min":80.5625,"x_max":611.109375,"ha":694,"o":"m 550 1048 l 511 1094 l 356 1000 l 212 1098 l 166 1045 l 338 909 l 368 909 l 550 1048 m 80 865 l 80 0 l 608 0 l 608 86 l 173 86 l 173 406 l 534 406 l 534 495 l 173 495 l 173 779 l 611 779 l 611 865 l 80 865 "},"K":{"x_min":58.328125,"x_max":654.171875,"ha":694,"o":"m 58 865 l 58 0 l 161 0 l 161 358 l 229 431 l 530 -6 b 654 -1 530 -6 584 -1 l 304 490 l 630 865 l 594 865 b 523 872 570 865 547 865 l 161 465 l 161 830 b 166 845 161 836 161 840 b 173 865 169 850 176 856 l 58 865 "},"7":{"x_min":108.328125,"x_max":598.609375,"ha":694,"o":"m 108 865 l 108 772 l 479 772 b 352 462 434 669 393 566 b 187 0 294 309 238 155 l 297 0 b 434 404 338 136 384 270 b 598 811 484 541 540 676 l 598 865 l 108 865 "},"¨":{"x_min":155.5625,"x_max":541.671875,"ha":694,"o":"m 295 852 b 225 922 295 890 263 922 b 155 852 186 922 155 890 b 225 781 155 813 186 781 b 295 852 263 781 295 813 m 541 852 b 472 922 541 890 511 922 b 402 852 434 922 402 890 b 472 781 402 813 434 781 b 541 852 511 781 541 813 "},"Y":{"x_min":38.890625,"x_max":655.5625,"ha":694,"o":"m 38 865 l 305 340 l 305 0 l 411 0 l 411 340 l 655 865 l 552 865 l 361 445 l 148 865 l 38 865 "},"E":{"x_min":80.5625,"x_max":611.109375,"ha":694,"o":"m 80 865 l 80 0 l 608 0 l 608 86 l 173 86 l 173 406 l 534 406 l 534 495 l 173 495 l 173 779 l 611 779 l 611 865 l 80 865 "},"Ô":{"x_min":40.28125,"x_max":654.171875,"ha":694,"o":"m 156 961 l 195 913 l 350 1008 l 494 909 l 540 962 l 368 1098 l 338 1098 l 156 961 m 654 430 b 601 711 654 511 648 618 b 351 873 544 822 445 873 b 40 433 222 873 40 773 b 352 -13 40 93 219 -13 b 602 154 445 -13 545 38 b 654 430 648 247 654 354 m 347 783 b 523 645 408 783 483 747 b 556 418 552 573 556 490 b 518 198 556 361 554 272 b 352 80 477 113 411 80 b 136 445 255 80 136 170 b 347 783 136 704 256 783 "},"‹":{"x_min":200,"x_max":475,"ha":694,"o":"m 200 350 l 200 318 l 419 84 l 475 138 l 297 333 l 465 498 l 411 555 l 200 350 "},"Ï":{"x_min":112.5,"x_max":559.71875,"ha":694,"o":"m 284 1025 b 213 1094 284 1063 252 1094 b 144 1025 176 1094 144 1063 b 213 954 144 986 176 954 b 284 1025 252 954 284 986 m 531 1025 b 462 1094 531 1063 500 1094 b 393 1025 423 1094 393 1063 b 462 954 393 986 423 954 b 531 1025 500 954 531 986 m 122 865 l 122 783 l 281 783 l 281 79 l 112 79 l 112 -1 l 559 -1 l 559 77 l 379 77 l 379 783 l 550 783 l 550 865 l 122 865 "},"±":{"x_min":61.109375,"x_max":634.71875,"ha":694,"o":"m 62 111 l 62 23 l 634 23 l 634 111 l 62 111 m 306 797 l 306 559 l 61 559 l 61 475 l 306 475 l 306 215 l 394 215 l 394 475 l 631 475 l 631 559 l 394 559 l 394 797 l 306 797 "},"ì":{"x_min":138.890625,"x_max":550,"ha":694,"o":"m 265 970 l 177 911 l 318 725 l 387 766 l 265 970 m 147 634 l 147 552 l 300 552 l 300 79 l 138 79 l 138 0 l 550 0 l 550 79 l 401 79 l 401 634 l 147 634 "},"|":{"x_min":300,"x_max":393.0625,"ha":694,"o":"m 300 905 l 300 -211 l 393 -211 l 393 905 l 300 905 "},"§":{"x_min":88.890625,"x_max":579.171875,"ha":694,"o":"m 572 809 b 356 931 529 884 448 931 b 129 734 226 931 129 840 b 222 577 129 679 156 619 b 109 437 155 554 109 501 b 197 304 109 390 136 340 b 402 223 266 262 345 258 b 466 125 450 195 466 158 b 330 15 466 68 415 15 b 173 102 225 15 177 91 b 162 127 170 111 173 123 l 88 43 b 329 -76 147 -33 237 -76 b 566 127 470 -76 566 19 b 476 288 566 187 537 247 b 579 423 537 313 579 365 b 451 580 579 473 548 534 b 304 640 395 606 344 619 b 230 743 243 672 230 715 b 356 850 230 801 283 850 b 483 768 430 850 472 800 b 494 740 487 758 484 747 l 572 809 m 273 552 b 395 508 316 536 359 526 b 476 400 459 476 476 430 b 425 316 476 362 455 331 b 284 363 375 336 326 343 b 209 466 226 391 209 434 b 273 552 209 506 236 540 "},"q":{"x_min":58.328125,"x_max":612.5,"ha":694,"o":"m 518 541 b 333 650 518 540 473 650 b 58 322 194 650 58 537 b 319 -15 58 116 179 -15 b 513 101 400 -15 473 30 l 513 -231 l 612 -231 l 612 633 l 518 633 l 518 541 m 337 568 b 494 461 394 568 466 538 b 509 308 506 425 509 386 b 497 193 509 261 506 226 b 341 73 472 118 406 73 b 158 336 250 73 158 156 b 337 568 158 502 252 568 "},"b":{"x_min":81.9375,"x_max":634.71875,"ha":694,"o":"m 81 923 l 81 0 l 147 0 l 181 83 b 369 -16 223 20 293 -16 b 634 325 500 -16 634 94 b 379 648 634 545 504 648 b 183 536 298 648 223 605 l 183 891 b 191 908 183 900 184 902 b 200 923 194 909 201 915 l 81 923 m 344 562 b 530 302 404 562 530 527 b 343 73 530 109 405 73 b 187 212 300 73 204 90 b 183 337 183 244 183 281 b 200 470 183 394 186 436 b 344 562 223 527 281 562 "},"®":{"x_min":18.0625,"x_max":690.28125,"ha":694,"o":"m 354 25 b 690 380 537 25 690 181 b 355 734 690 579 538 734 b 18 379 170 734 18 579 b 354 25 18 181 170 25 m 81 380 b 356 676 81 547 206 676 b 630 381 505 676 630 547 b 356 86 630 215 505 86 b 81 380 206 86 81 215 m 215 183 l 279 183 l 279 355 l 369 355 l 455 181 l 522 191 l 431 365 b 513 470 480 377 513 422 b 441 575 513 513 487 555 b 345 588 409 588 376 588 l 215 588 l 215 183 m 279 533 l 347 533 b 419 520 369 533 397 533 b 450 470 440 508 450 488 b 422 423 450 454 441 436 b 350 411 400 409 373 411 l 279 411 l 279 533 "},"Ŋ":{"x_min":69.4375,"x_max":622.21875,"ha":694,"o":"m 69 0 l 172 0 l 172 572 b 204 690 172 618 176 652 b 379 793 234 734 304 793 b 502 715 431 793 477 765 b 523 586 525 672 523 626 l 523 236 b 508 131 523 202 523 165 b 415 72 490 93 455 72 b 354 88 383 72 356 86 b 340 104 348 93 347 100 l 290 18 b 412 -15 327 -4 369 -15 b 598 98 493 -15 565 26 b 622 243 622 147 622 194 l 622 587 l 622 587 b 595 752 622 643 622 698 b 397 880 559 834 481 880 b 172 751 305 880 220 829 l 172 865 l 69 865 l 69 0 "},"L":{"x_min":91.671875,"x_max":609.71875,"ha":694,"o":"m 91 865 l 91 -1 l 609 -1 l 609 81 l 191 81 l 191 818 b 200 843 191 830 195 834 b 204 865 201 847 205 854 l 91 865 "},"ď":{"x_min":-1.390625,"x_max":706.953125,"ha":694,"o":"m 427 541 b 251 650 395 608 327 650 b -1 322 122 650 -1 530 b 238 -15 -1 126 104 -15 b 423 101 315 -15 384 34 l 423 45 b 429 0 423 30 425 15 l 529 0 b 523 58 523 18 523 38 l 523 923 l 427 923 l 427 541 m 255 569 b 398 475 306 569 370 533 b 420 305 418 434 420 390 b 388 154 420 247 416 200 b 259 73 363 112 315 73 b 95 333 156 73 95 204 b 255 569 95 469 166 569 m 706 838 b 629 931 706 895 668 931 b 565 868 593 931 565 901 b 595 818 565 837 586 825 b 622 779 605 812 622 801 b 605 733 622 761 611 741 b 550 663 594 715 576 687 l 588 630 b 706 838 665 708 706 781 "}," ":{"x_min":0,"x_max":0,"ha":694},"À":{"x_min":19.4375,"x_max":670.828125,"ha":694,"o":"m 251 1098 l 195 1001 l 430 916 l 462 973 l 251 1098 m 19 -1 l 115 -1 l 200 252 l 473 252 l 569 0 l 670 0 l 336 880 l 325 880 l 19 -1 m 452 327 l 218 327 l 330 656 l 452 327 "},"+":{"x_min":61.109375,"x_max":631.9375,"ha":694,"o":"m 306 725 l 306 488 l 61 488 l 61 402 l 306 402 l 306 143 l 394 143 l 394 402 l 631 402 l 631 488 l 394 488 l 394 725 l 306 725 "},"½":{"x_min":8.328125,"x_max":686.109375,"ha":694,"o":"m 104 -23 l 169 -59 l 605 884 l 540 922 l 104 -23 m 363 233 l 416 198 b 426 220 422 208 420 213 b 525 268 445 245 481 268 b 608 200 577 268 608 236 b 551 113 608 166 583 140 b 375 -52 518 86 436 31 l 375 -101 l 686 -101 l 686 -31 b 670 -37 677 -29 672 -34 b 658 -41 666 -40 663 -41 l 456 -41 b 623 97 518 27 579 56 b 676 200 640 112 676 148 b 527 325 676 268 615 325 b 363 233 459 325 397 290 m 201 940 l 154 940 l 8 859 l 26 825 l 131 851 l 131 579 l 22 579 l 22 518 l 305 518 l 305 579 l 201 579 l 201 940 "},"Ë":{"x_min":80.5625,"x_max":611.109375,"ha":694,"o":"m 288 1025 b 219 1094 288 1063 258 1094 b 148 1025 180 1094 148 1063 b 219 954 148 986 180 954 b 288 1025 258 954 288 986 m 536 1025 b 466 1094 536 1063 505 1094 b 397 1025 427 1094 397 1063 b 466 954 397 986 429 954 b 536 1025 505 954 536 986 m 80 865 l 80 0 l 608 0 l 608 86 l 173 86 l 173 406 l 534 406 l 534 495 l 173 495 l 173 779 l 611 779 l 611 865 l 80 865 "},"'":{"x_min":286.109375,"x_max":443.0625,"ha":694,"o":"m 443 838 b 380 925 443 901 406 925 b 320 848 352 925 320 902 b 329 761 320 818 329 790 b 315 683 329 733 323 706 l 286 590 l 362 570 l 395 663 b 443 838 430 758 443 802 "},"Š":{"x_min":70.828125,"x_max":631.9375,"ha":694,"o":"m 558 1048 l 518 1094 l 363 1000 l 219 1098 l 173 1045 l 345 909 l 375 909 l 558 1048 m 602 761 b 363 869 544 831 458 869 b 100 647 206 869 100 766 b 191 479 100 597 119 531 b 462 348 272 419 397 390 b 534 229 519 313 534 268 b 345 72 534 154 470 72 b 138 168 251 72 177 119 b 134 181 134 173 134 176 b 129 195 134 184 134 193 l 70 95 b 343 -15 138 22 236 -15 b 631 234 554 -15 631 126 b 563 391 631 280 618 340 b 287 533 488 462 366 487 b 200 662 215 576 200 627 b 355 788 200 729 256 788 b 531 704 436 788 498 752 b 534 690 536 698 534 695 b 541 679 534 681 538 679 l 602 761 "},"˛":{"x_min":383.328125,"x_max":587.5,"ha":694,"o":"m 493 0 b 383 -159 420 -59 383 -115 b 491 -245 383 -206 419 -245 b 587 -212 526 -245 561 -236 l 587 -150 b 543 -173 579 -156 565 -166 b 509 -181 529 -179 518 -181 b 469 -141 484 -181 469 -163 b 493 -94 469 -120 483 -105 b 586 0 504 -80 538 -43 l 493 0 "},"ð":{"x_min":55.5625,"x_max":638.890625,"ha":694,"o":"m 352 562 b 537 320 425 562 537 513 b 354 69 537 129 431 69 b 161 322 254 69 161 161 b 352 562 161 484 259 562 m 480 791 l 600 825 l 576 887 l 426 847 b 305 933 383 884 340 912 l 191 909 b 333 820 244 887 291 856 l 190 781 l 215 716 l 391 766 b 511 576 443 711 483 647 b 344 648 469 620 409 648 b 55 308 190 648 55 498 b 355 -18 55 118 194 -18 b 584 112 447 -18 533 27 b 638 351 630 187 638 276 b 480 791 638 552 566 694 "},"ş":{"x_min":77.78125,"x_max":609.71875,"ha":694,"o":"m 600 550 b 362 648 541 613 456 648 b 119 472 215 648 119 566 b 273 308 119 361 238 320 b 444 250 327 288 397 272 b 506 169 497 225 506 191 b 344 69 506 109 434 69 b 145 156 236 69 166 134 b 141 172 141 162 141 166 b 136 184 141 173 143 181 l 77 86 b 325 -13 147 20 236 -9 l 311 -119 l 351 -119 b 402 -129 368 -119 387 -119 b 418 -152 413 -134 418 -144 b 354 -186 418 -165 408 -186 b 216 -137 312 -186 259 -172 l 181 -194 b 345 -245 233 -231 293 -245 b 497 -143 448 -245 497 -193 b 455 -79 497 -116 481 -91 b 401 -68 437 -69 419 -68 l 379 -66 l 384 -13 b 609 183 533 1 609 94 b 516 326 609 226 591 284 b 283 409 445 366 343 380 b 220 487 231 434 220 465 b 354 573 220 537 283 573 b 530 486 445 573 506 518 b 533 473 534 481 533 477 b 541 462 533 465 538 462 l 600 550 "},"ı":{"x_min":138.890625,"x_max":550,"ha":694,"o":"m 147 634 l 147 552 l 300 552 l 300 79 l 138 79 l 138 0 l 550 0 l 550 79 l 401 79 l 401 634 l 147 634 "},"Ć":{"x_min":55.5625,"x_max":650,"ha":694,"o":"m 427 1098 l 215 973 l 247 916 l 481 1001 l 427 1098 m 384 872 b 55 426 250 872 55 773 b 384 -15 55 93 241 -15 b 637 127 487 -15 583 38 l 566 173 b 390 69 526 108 456 69 b 150 436 262 69 150 201 b 381 794 150 665 259 794 b 547 693 448 794 512 754 b 552 679 550 688 552 684 b 551 668 552 675 551 672 b 558 655 551 666 551 659 l 650 700 b 384 872 604 804 500 872 "},"ä":{"x_min":68.0625,"x_max":602.78125,"ha":694,"o":"m 313 852 b 243 922 313 890 281 922 b 173 852 204 922 173 890 b 243 781 173 813 204 781 b 313 852 281 781 313 813 m 559 852 b 490 922 559 890 529 922 b 420 852 452 922 420 890 b 490 781 420 813 452 781 b 559 852 529 781 559 813 m 125 559 l 173 495 b 356 566 226 549 297 566 b 487 505 431 566 469 534 b 506 395 508 470 506 429 l 506 373 l 487 373 b 212 344 393 373 293 373 b 68 163 112 308 68 233 b 280 -16 68 70 148 -16 b 508 69 358 -16 438 12 l 508 0 l 602 0 l 602 393 b 572 543 602 444 601 493 b 351 647 530 611 450 647 b 125 559 266 647 184 620 m 511 297 l 511 254 b 468 134 511 222 511 180 b 301 59 444 111 384 59 b 168 169 216 59 168 113 b 279 287 168 216 200 268 b 488 297 337 301 422 297 l 511 297 "},"¹":{"x_min":170.828125,"x_max":541.671875,"ha":694,"o":"m 412 877 l 354 877 l 170 777 l 193 734 l 326 768 l 326 426 l 188 426 l 188 350 l 541 350 l 541 426 l 412 426 l 412 877 "},"£":{"x_min":52.78125,"x_max":652.78125,"ha":694,"o":"m 579 794 b 398 865 529 840 465 865 b 155 612 269 865 155 768 b 165 523 155 583 159 552 l 93 523 l 93 445 l 183 445 b 204 306 194 400 204 354 b 156 138 204 244 187 186 b 52 68 134 104 118 97 l 88 -11 b 259 40 177 36 231 40 b 508 -20 361 40 419 -20 b 652 36 568 -20 620 11 l 615 108 b 512 69 587 84 551 69 b 283 127 433 69 376 127 b 245 123 270 127 258 126 b 297 309 279 177 297 241 b 277 445 297 356 288 402 l 397 445 l 397 523 l 259 523 b 248 613 252 554 248 584 b 395 786 248 729 322 786 b 500 745 454 786 494 752 b 518 716 508 736 506 725 l 579 794 "},"ů":{"x_min":86.109375,"x_max":611.109375,"ha":694,"o":"m 481 838 b 355 961 481 906 426 961 b 227 840 284 961 227 906 b 355 716 227 772 284 716 b 481 838 426 716 481 772 m 298 840 b 356 904 298 876 325 904 b 413 840 387 904 413 876 b 356 776 413 804 387 776 b 298 840 325 776 298 805 m 86 633 l 86 279 b 111 112 86 224 86 169 b 308 -16 147 29 225 -16 b 504 95 387 -16 462 26 l 502 48 b 505 0 502 31 502 15 l 611 0 b 602 56 604 18 602 38 l 602 633 l 502 633 l 502 284 b 477 159 502 236 498 198 b 330 65 448 105 391 65 b 209 143 281 65 234 93 b 187 279 187 187 187 237 l 187 633 l 86 633 "},"W":{"x_min":23.609375,"x_max":676.390625,"ha":694,"o":"m 23 865 l 162 -6 l 201 -6 l 352 565 l 501 -6 l 540 -6 l 676 865 l 594 865 l 515 277 l 375 801 l 345 801 l 206 279 l 112 865 l 23 865 "},"Ğ":{"x_min":50,"x_max":637.5,"ha":694,"o":"m 201 1097 l 151 1033 b 358 926 206 968 281 926 b 562 1038 441 926 515 975 l 523 1095 b 358 998 476 1034 416 998 b 201 1097 288 998 233 1047 m 384 873 b 50 422 269 873 50 801 b 383 -13 50 94 233 -13 b 637 76 463 -13 556 15 l 637 413 l 391 413 l 391 330 l 548 330 l 548 123 b 393 70 500 88 444 70 b 227 147 336 70 275 93 b 145 441 155 229 145 351 b 188 663 145 522 155 600 b 383 787 233 748 311 787 b 548 686 461 787 522 744 b 568 658 552 676 556 665 l 636 727 b 384 873 586 818 491 873 "},"v":{"x_min":54.171875,"x_max":633.328125,"ha":694,"o":"m 54 634 l 305 -5 l 384 -5 l 538 356 b 633 634 576 445 612 537 l 543 634 b 456 370 526 541 493 454 l 355 134 l 172 598 b 169 606 170 601 169 604 b 173 634 169 615 176 623 l 54 634 "},">":{"x_min":54.171875,"x_max":647.21875,"ha":694,"o":"m 58 688 l 540 443 l 54 169 l 54 65 l 647 411 l 647 477 l 58 786 l 58 688 "},"û":{"x_min":86.109375,"x_max":611.109375,"ha":694,"o":"m 184 755 l 237 708 l 350 848 l 458 706 l 523 754 l 369 951 l 340 951 l 184 755 m 86 633 l 86 279 b 111 112 86 224 86 169 b 308 -16 147 29 225 -16 b 504 95 387 -16 462 26 l 502 48 b 505 0 502 31 502 15 l 611 0 b 602 56 604 18 602 38 l 602 633 l 502 633 l 502 284 b 477 159 502 236 498 198 b 330 65 448 105 391 65 b 209 143 281 65 234 93 b 187 279 187 187 187 237 l 187 633 l 86 633 "},"Ź":{"x_min":69.4375,"x_max":641.671875,"ha":694,"o":"m 427 1098 l 215 973 l 247 916 l 481 1001 l 427 1098 m 86 865 l 86 777 l 505 777 l 69 66 l 69 -1 l 641 -1 l 641 93 b 600 84 625 95 619 84 l 191 84 l 619 795 l 620 865 l 86 865 "},"Ð":{"x_min":41.671875,"x_max":647.21875,"ha":694,"o":"m 108 865 l 108 498 l 41 498 l 41 418 l 108 418 l 108 -1 l 286 -1 b 443 25 347 -1 393 1 b 647 437 576 86 647 252 b 498 813 647 584 602 736 b 302 865 437 858 377 865 l 108 865 m 198 418 l 343 418 l 343 498 l 198 498 l 198 783 l 297 783 b 480 700 350 783 420 780 b 552 425 531 629 552 520 b 425 113 552 287 509 170 b 280 77 376 80 330 77 l 198 77 l 198 418 "},"ˉ":{"x_min":170.828125,"x_max":523.609375,"ha":694,"o":"m 170 863 l 170 786 l 523 786 l 523 863 l 170 863 "},"Ĺ":{"x_min":91.671875,"x_max":609.71875,"ha":694,"o":"m 427 1098 l 215 973 l 247 916 l 481 1001 l 427 1098 m 91 865 l 91 -1 l 609 -1 l 609 81 l 191 81 l 191 818 b 200 843 191 830 195 834 b 204 865 201 847 205 854 l 91 865 "},"r":{"x_min":137.5,"x_max":636.109375,"ha":694,"o":"m 137 633 l 137 -1 l 237 -1 l 237 306 b 281 455 237 345 238 387 b 461 562 340 547 415 562 b 565 515 513 562 547 537 b 588 483 573 504 577 493 l 636 579 b 466 648 595 620 537 648 b 237 511 373 648 279 601 l 241 633 l 137 633 "},"Č":{"x_min":55.5625,"x_max":650,"ha":694,"o":"m 573 1048 l 533 1094 l 379 1000 l 236 1098 l 190 1045 l 361 909 l 391 909 l 573 1048 m 384 872 b 55 426 250 872 55 773 b 384 -15 55 93 241 -15 b 637 127 487 -15 583 38 l 566 173 b 390 69 526 108 456 69 b 150 436 262 69 150 201 b 381 794 150 665 259 794 b 547 693 448 794 512 754 b 552 679 550 688 552 684 b 551 668 552 675 551 672 b 558 655 551 666 551 659 l 650 700 b 384 872 604 804 500 872 "},"x":{"x_min":65.28125,"x_max":631.9375,"ha":694,"o":"m 502 634 l 344 400 l 177 634 l 69 634 l 287 322 l 65 0 l 177 0 l 343 245 l 518 0 l 631 0 l 398 325 l 604 634 l 502 634 "},"è":{"x_min":66.671875,"x_max":616.234375,"ha":694,"o":"m 337 970 l 250 911 l 390 725 l 459 766 l 337 970 m 358 648 b 66 309 206 648 66 540 b 370 -15 66 97 198 -15 b 598 83 462 -15 544 18 l 543 137 b 379 65 502 90 441 65 b 163 302 294 65 170 112 l 613 302 b 609 423 618 345 616 387 b 358 648 580 594 462 648 m 166 379 b 351 572 187 529 283 572 b 515 379 454 572 527 481 l 166 379 "},"Ø":{"x_min":40.28125,"x_max":654.171875,"ha":694,"o":"m 347 783 b 466 733 386 783 429 769 l 183 200 b 136 445 154 256 136 337 b 347 783 136 704 256 783 m 654 430 b 601 711 654 511 648 618 b 573 755 593 727 583 741 l 650 900 l 576 938 l 512 819 b 351 873 463 856 406 873 b 40 433 222 873 40 773 b 130 101 40 277 77 172 l 50 -51 l 122 -87 l 190 41 b 352 -13 243 1 301 -13 b 602 154 445 -13 545 38 b 654 430 648 247 654 354 m 519 655 l 523 645 b 556 418 552 573 556 490 b 518 198 556 361 554 272 b 352 80 477 113 411 80 b 237 127 315 80 273 94 l 519 655 "},"Ń":{"x_min":69.4375,"x_max":629.546875,"ha":694,"o":"m 427 1098 l 215 973 l 247 916 l 481 1001 l 427 1098 m 69 0 l 162 0 l 162 680 l 543 -1 l 620 -1 l 620 829 b 626 848 620 838 622 841 b 629 865 627 851 630 858 l 526 865 l 526 223 l 163 865 l 69 865 l 69 0 "},"÷":{"x_min":97.21875,"x_max":597.21875,"ha":694,"o":"m 97 481 l 97 390 l 597 390 l 597 481 l 97 481 m 416 647 b 354 709 416 681 388 709 b 291 647 319 709 291 681 b 354 584 291 613 319 584 b 416 647 388 584 416 613 m 416 219 b 354 281 416 254 388 281 b 291 219 319 281 291 254 b 354 156 291 184 319 156 b 416 219 388 156 416 186 "},"h":{"x_min":95.828125,"x_max":601.390625,"ha":694,"o":"m 95 0 l 198 0 l 198 365 b 229 473 198 406 202 438 b 381 562 254 505 315 562 b 468 522 413 562 445 548 b 502 381 502 480 502 426 l 502 0 l 601 0 l 601 384 l 601 384 b 577 537 601 433 600 486 b 409 648 545 608 481 648 b 198 522 323 648 244 593 l 198 890 b 202 902 198 894 198 898 b 212 918 206 906 212 911 b 211 922 212 919 212 920 l 95 922 l 95 0 "},".":{"x_min":248.609375,"x_max":412.5,"ha":694,"o":"m 412 63 b 330 143 412 106 376 143 b 248 63 284 143 248 106 b 330 -16 248 19 284 -16 b 412 63 376 -16 412 19 "},"f":{"x_min":86.109375,"x_max":670.828125,"ha":694,"o":"m 476 930 b 259 820 387 930 304 893 b 225 658 226 768 225 715 l 225 595 l 86 595 l 86 516 l 225 516 l 225 0 l 320 0 l 320 516 l 527 516 l 527 595 l 320 595 l 320 645 b 343 781 320 691 319 740 b 470 852 369 829 419 852 b 609 780 531 852 583 820 b 613 763 613 773 613 769 b 625 751 613 754 620 751 l 670 844 b 476 930 625 898 555 930 "},"“":{"x_min":108.328125,"x_max":591.671875,"ha":694,"o":"m 395 623 b 493 508 395 552 443 508 b 572 587 538 508 572 545 b 533 650 572 625 545 641 b 501 698 522 656 501 670 b 522 756 501 722 515 745 b 591 843 534 779 558 812 l 543 884 b 395 623 447 786 395 695 m 108 623 b 204 508 108 552 155 508 b 284 587 250 508 284 545 b 245 650 284 625 258 641 b 213 698 233 656 213 670 b 234 756 213 722 227 745 b 304 843 247 779 270 812 l 255 884 b 108 623 159 786 108 695 "},"A":{"x_min":19.4375,"x_max":670.828125,"ha":694,"o":"m 19 -1 l 115 -1 l 200 252 l 473 252 l 569 0 l 670 0 l 336 880 l 325 880 l 19 -1 m 452 327 l 218 327 l 330 656 l 452 327 "},"‘":{"x_min":252.78125,"x_max":447.21875,"ha":694,"o":"m 252 623 b 348 508 252 552 298 508 b 429 587 394 508 429 545 b 390 650 429 625 402 641 b 356 698 377 656 356 670 b 377 756 356 722 370 745 b 447 843 391 779 415 812 l 400 884 b 252 623 302 786 252 695 "},"O":{"x_min":40.28125,"x_max":654.171875,"ha":694,"o":"m 654 430 b 601 711 654 511 648 618 b 351 873 544 822 445 873 b 40 433 222 873 40 773 b 352 -13 40 93 219 -13 b 602 154 445 -13 545 38 b 654 430 648 247 654 354 m 347 783 b 523 645 408 783 483 747 b 556 418 552 573 556 490 b 518 198 556 361 554 272 b 352 80 477 113 411 80 b 136 445 255 80 136 170 b 347 783 136 704 256 783 "},"Đ":{"x_min":41.671875,"x_max":647.21875,"ha":694,"o":"m 108 865 l 108 498 l 41 498 l 41 418 l 108 418 l 108 -1 l 286 -1 b 443 25 347 -1 393 1 b 647 437 576 86 647 252 b 498 813 647 584 602 736 b 302 865 437 858 377 865 l 108 865 m 198 418 l 343 418 l 343 498 l 198 498 l 198 783 l 297 783 b 480 700 350 783 420 780 b 552 425 531 629 552 520 b 425 113 552 287 509 170 b 280 77 376 80 330 77 l 198 77 l 198 418 "},"3":{"x_min":95.828125,"x_max":588.890625,"ha":694,"o":"m 569 648 b 331 868 569 766 469 868 b 123 775 254 868 177 834 l 177 715 b 327 781 218 758 273 781 b 477 645 416 781 477 719 b 384 509 477 594 445 536 b 248 488 369 504 330 488 l 248 411 b 293 413 262 412 277 413 b 495 248 409 413 495 352 b 322 72 495 154 423 72 b 186 131 241 72 193 125 b 168 170 175 144 180 158 l 95 83 b 322 -15 152 18 236 -15 b 588 237 488 -15 588 102 b 440 461 588 340 530 427 b 569 648 518 490 569 563 "},"9":{"x_min":94.4375,"x_max":606.9375,"ha":694,"o":"m 301 -15 b 569 186 406 -15 516 48 b 606 443 584 226 606 301 b 576 684 606 551 597 626 b 341 873 531 818 431 873 b 94 586 206 873 94 754 b 331 313 94 420 205 313 b 509 406 402 313 469 348 b 475 193 505 272 483 213 b 304 73 437 105 365 73 b 200 105 241 73 200 104 b 176 138 187 113 191 129 l 109 63 b 301 -15 161 13 229 -15 m 340 398 b 188 590 263 398 188 461 b 340 787 188 716 261 787 b 505 504 437 787 520 679 b 340 398 466 438 402 398 "},"l":{"x_min":108.328125,"x_max":584.71875,"ha":694,"o":"m 116 922 l 116 841 l 297 841 l 297 79 l 108 79 l 108 0 l 584 0 l 584 79 l 397 79 l 397 922 l 116 922 "},"4":{"x_min":66.671875,"x_max":627.78125,"ha":694,"o":"m 434 865 l 66 311 l 66 238 l 415 238 l 415 0 l 515 0 l 515 237 l 627 237 l 627 323 l 515 323 l 515 865 l 434 865 m 416 711 l 416 323 l 162 323 l 416 711 "},"Ü":{"x_min":69.4375,"x_max":629.171875,"ha":694,"o":"m 301 1025 b 230 1094 301 1063 269 1094 b 161 1025 193 1094 161 1063 b 230 954 161 986 193 954 b 301 1025 269 954 301 986 m 548 1025 b 479 1094 548 1063 516 1094 b 409 1025 440 1094 409 1063 b 479 954 409 986 440 954 b 548 1025 516 954 548 986 m 69 865 l 69 297 l 69 297 b 102 118 69 236 70 177 b 348 -16 150 29 247 -16 b 594 119 448 -16 545 27 b 629 302 627 179 629 238 l 629 865 l 537 865 l 537 300 b 515 168 537 255 536 212 b 350 66 483 101 418 66 b 186 169 281 66 216 102 b 165 297 165 211 165 254 l 165 820 b 170 838 165 826 165 831 b 179 858 173 843 179 850 b 177 865 179 859 179 862 l 69 865 "},"à":{"x_min":68.0625,"x_max":602.78125,"ha":694,"o":"m 337 970 l 250 911 l 390 725 l 459 766 l 337 970 m 125 559 l 173 495 b 356 566 226 550 297 566 b 487 505 431 566 469 534 b 506 395 508 470 506 429 l 506 373 l 487 373 b 212 344 393 373 293 373 b 68 163 112 308 68 233 b 280 -16 68 70 148 -16 b 508 69 358 -16 438 12 l 508 0 l 602 0 l 602 393 b 572 543 602 444 601 493 b 351 647 530 611 450 647 b 125 559 266 647 184 620 m 511 297 l 511 254 b 468 134 511 222 511 180 b 301 59 444 111 384 59 b 168 169 216 59 168 113 b 279 287 168 216 200 268 b 488 297 337 301 422 297 l 511 297 "},"Ś":{"x_min":70.828125,"x_max":631.9375,"ha":694,"o":"m 427 1098 l 215 973 l 247 916 l 481 1001 l 427 1098 m 602 761 b 363 869 544 831 458 869 b 100 647 206 869 100 766 b 191 479 100 597 119 531 b 462 348 272 419 397 390 b 534 229 519 313 534 268 b 345 72 534 154 470 72 b 138 168 251 72 177 119 b 134 181 134 173 134 176 b 129 195 134 184 134 193 l 70 95 b 343 -15 138 22 236 -15 b 631 234 554 -15 631 126 b 563 391 631 280 618 340 b 287 533 488 462 366 487 b 200 662 215 576 200 627 b 355 788 200 729 256 788 b 531 704 436 788 498 752 b 534 690 536 698 534 695 b 541 679 534 681 538 679 l 602 761 "},"Ť":{"x_min":43.0625,"x_max":641.671875,"ha":694,"o":"m 550 1048 l 511 1094 l 356 1000 l 212 1098 l 166 1045 l 338 909 l 368 909 l 550 1048 m 43 865 l 43 777 l 287 777 l 287 -1 l 386 -1 l 386 777 l 641 777 l 641 865 l 43 865 "},"ó":{"x_min":55.5625,"x_max":638.890625,"ha":694,"o":"m 404 970 l 281 766 l 351 725 l 491 911 l 404 970 m 638 313 b 355 647 638 533 500 647 b 55 311 194 647 55 508 b 352 -18 55 118 193 -18 b 638 313 502 -18 638 102 m 348 562 b 537 309 440 562 537 483 b 354 69 537 150 445 69 b 161 320 252 69 161 163 b 348 562 161 476 251 562 "}}}
